<?xml version="1.0" encoding="UTF-8" standalone="no"?>
<svg width="20px" height="20px" viewBox="0 0 20 20" version="1.1" xmlns="http://www.w3.org/2000/svg" xmlns:xlink="http://www.w3.org/1999/xlink" xmlns:sketch="http://www.bohemiancoding.com/sketch/ns">
    <!-- Generator: sketchtool 3.4 (375) - http://www.bohemiancoding.com/sketch -->
    <title>nav-bar-icon-chat-white</title>
    <desc>Created with sketchtool.</desc>
    <defs></defs>
    <g id="frame" stroke="none" stroke-width="1" fill="none" fill-rule="evenodd" sketch:type="MSPage">
        <g id="frame-additional-assets" sketch:type="MSArtboardGroup" transform="translate(-40.000000, -40.000000)">
            <rect id="Rectangle-76" fill="#D8D8D8" sketch:type="MSShapeGroup" x="0" y="0" width="100" height="100"></rect>
            <g id="nav-bar-icon-chat-white" sketch:type="MSLayerGroup" transform="translate(40.000000, 40.000000)" fill="#FFFFFF">
                <path d="M3.90557895,1 C2.90042105,1 1,1.60021311 1,3.86588525 L1,13.4608852 C1,15.7268689 2.90042105,16.3267705 3.90557895,16.3267705 L9.734375,16.3267708 L10.078125,15.3929672 L3.90557895,15.3923443 C3.706,15.3923443 1.948,15.3235082 1.948,13.4608852 L1.948,3.86619672 C1.948,2.00606557 3.706,1.9347377 3.90557895,1.9347377 L16.0634737,1.9347377 C17.9518947,1.9347377 18.0216842,3.67214754 18.0248421,3.86619672 L18.0248421,13.4608852 C18.0248421,15.3235082 16.2633684,15.3929672 16.0634737,15.3929672 L13.6334737,15.3929672 C13.3726316,15.3929672 13.1607368,15.6010328 13.1607368,15.8614262 L13.1607368,18.3332951 L10.3195789,15.5300164 C10.2339343,15.4459721 10.078125,15.3929672 10.078125,15.3929672 L9.734375,16.3267708 L13.2974737,19.7866393 C13.39,19.8785246 13.5090526,19.924 13.6334737,19.924 C13.6937895,19.924 13.7547368,19.9124754 13.8125263,19.8894262 C13.9893684,19.8152951 14.1055789,19.6467869 14.1055789,19.4580328 L14.1055789,16.3267705 L16.0634737,16.3267705 C17.0683158,16.3267705 18.9690526,15.7268689 18.9690526,13.4608852 L18.9690526,3.86619672 C18.9693684,2.87477049 18.3608421,1 16.0634737,1 L3.90557895,1 Z" id="Shape" sketch:type="MSShapeGroup"></path>
                <path d="M5.12231579,6.73177049 L14.8498947,6.73177049 C15.1101053,6.73177049 15.3223158,6.52308197 15.3223158,6.26580328 C15.3223158,6.00540984 15.1101053,5.79734426 14.8498947,5.79734426 L5.12231579,5.79734426 C4.86210526,5.79734426 4.64736842,6.00603279 4.64736842,6.26580328 C4.64736842,6.52339344 4.86147368,6.73177049 5.12231579,6.73177049 L5.12231579,6.73177049 Z" id="Shape" sketch:type="MSShapeGroup"></path>
                <path d="M5.12231579,9.1295082 L14.8498947,9.1295082 C15.1101053,9.1295082 15.3223158,8.92081967 15.3223158,8.66354098 C15.3223158,8.4062623 15.1101053,8.19819672 14.8498947,8.19819672 L5.12231579,8.19819672 C4.86210526,8.19819672 4.64736842,8.4062623 4.64736842,8.66354098 C4.64736842,8.92081967 4.86147368,9.1295082 5.12231579,9.1295082 L5.12231579,9.1295082 Z" id="Shape" sketch:type="MSShapeGroup"></path>
                <path d="M5.12231579,11.5294262 L14.8498947,11.5294262 C15.1101053,11.5294262 15.3223158,11.3207377 15.3223158,11.063459 C15.3223158,10.8068033 15.1101053,10.595 14.8498947,10.595 L5.12231579,10.595 C4.86210526,10.595 4.64736842,10.8061803 4.64736842,11.063459 C4.64736842,11.3213607 4.86147368,11.5294262 5.12231579,11.5294262 L5.12231579,11.5294262 Z" id="Shape" sketch:type="MSShapeGroup"></path>
            </g>
        </g>
    </g>
</svg>