<?xml version="1.0" encoding="utf-8"?>
<!-- Generator: Adobe Illustrator 16.0.0, SVG Export Plug-In . SVG Version: 6.00 Build 0)  -->
<!DOCTYPE svg PUBLIC "-//W3C//DTD SVG 1.1//EN" "http://www.w3.org/Graphics/SVG/1.1/DTD/svg11.dtd">
<svg version="1.1" id="Layer_1" xmlns:sketch="http://www.bohemiancoding.com/sketch/ns"
	 xmlns="http://www.w3.org/2000/svg" xmlns:xlink="http://www.w3.org/1999/xlink" x="0px" y="0px" width="20px" height="20px"
	 viewBox="0 0 20 20" enable-background="new 0 0 20 20" xml:space="preserve">
<title>nav-bar-icon-chat-white</title>
<desc>Created with sketchtool.</desc>
<g id="nav-bar-icon-chat-white" transform="translate(40.000000, 40.000000)" sketch:type="MSLayerGroup">
	<path id="Shape" sketch:type="MSShapeGroup" fill="#FFFFFF" d="M-36.094-39C-37.1-39-39-38.4-39-36.134v9.595
		c0,2.266,1.9,2.865,2.906,2.865h5.829l0.344-0.934h-6.172c-0.2,0-1.958-0.069-1.958-1.932v-9.595c0-1.86,1.758-1.932,1.958-1.932
		h12.158c1.888,0,1.958,1.737,1.962,1.932v9.595c0,1.862-1.762,1.932-1.962,1.932h-2.431c-0.26,0-0.473,0.209-0.473,0.469v2.473
		l-2.841-2.804c-0.085-0.085-0.241-0.138-0.241-0.138l-0.344,0.934l3.563,3.461c0.094,0.092,0.213,0.137,0.336,0.137
		c0.061,0,0.122-0.012,0.18-0.034c0.177-0.074,0.293-0.243,0.293-0.432v-3.132h1.958c1.005,0,2.905-0.6,2.905-2.865v-9.595
		c0-0.991-0.607-2.866-2.905-2.866H-36.094z"/>
	<path id="Shape_1_" sketch:type="MSShapeGroup" fill="#FFFFFF" d="M-34.877-33.268h9.727c0.26,0,0.473-0.209,0.473-0.466
		c0-0.26-0.213-0.468-0.473-0.468h-9.727c-0.26,0-0.475,0.208-0.475,0.468C-35.353-33.477-35.139-33.268-34.877-33.268
		L-34.877-33.268z"/>
	<path id="Shape_2_" sketch:type="MSShapeGroup" fill="#FFFFFF" d="M-34.877-30.871h9.727c0.26,0,0.473-0.208,0.473-0.466
		s-0.213-0.465-0.473-0.465h-9.727c-0.26,0-0.475,0.208-0.475,0.465S-35.139-30.871-34.877-30.871L-34.877-30.871z"/>
	<path id="Shape_3_" sketch:type="MSShapeGroup" fill="#FFFFFF" d="M-34.877-28.471h9.727c0.26,0,0.473-0.209,0.473-0.466
		s-0.213-0.469-0.473-0.469h-9.727c-0.26,0-0.475,0.212-0.475,0.469C-35.353-28.679-35.139-28.471-34.877-28.471L-34.877-28.471z"/>
</g>
</svg>
