<?xml version="1.0" encoding="UTF-8" standalone="no"?>
<svg width="20px" height="20px" viewBox="0 0 20 20" version="1.1" xmlns="http://www.w3.org/2000/svg" xmlns:xlink="http://www.w3.org/1999/xlink" xmlns:sketch="http://www.bohemiancoding.com/sketch/ns">
    <!-- Generator: sketchtool 3.4 (375) - http://www.bohemiancoding.com/sketch -->
    <title>nav-bar-icon-cards-white</title>
    <desc>Created with sketchtool.</desc>
    <defs></defs>
    <g id="frame" stroke="none" stroke-width="1" fill="none" fill-rule="evenodd" sketch:type="MSPage">
        <g id="frame-additional-assets" sketch:type="MSArtboardGroup" transform="translate(-70.000000, -10.000000)" fill="#FFFFFF">
            <g id="nav-bar-icon-cards-white" sketch:type="MSLayerGroup" transform="translate(70.000000, 10.000000)">
                <path d="M9.88052747,12.1354 C9.77925275,12.1354 9.67817582,12.1094 9.58718681,12.057 L1.30105495,7.2972 C1.11650549,7.1914 1.00237363,6.9946 1.0001978,6.7806 C0.99821978,6.5668 1.10879121,6.3676 1.29096703,6.2582 L9.61843956,1.2506 C9.80457143,1.1382 10.0367912,1.1382 10.2241099,1.2492 L18.5098462,6.1844 C18.6918242,6.293 18.8035824,6.4918 18.8023956,6.7058 C18.801011,6.9196 18.6876703,7.1168 18.5037143,7.2234 L10.1766374,12.0554 C10.0850549,12.1088 9.98279121,12.1354 9.88052747,12.1354 L9.88052747,12.1354 Z M2.77725275,6.7626 L9.87934066,10.8422 L17.0253407,6.6956 L9.92345055,2.4656 L2.77725275,6.7626 L2.77725275,6.7626 Z" id="Shape" sketch:type="MSShapeGroup"></path>
                <path d="M9.88052747,15.4862 C9.77925275,15.4862 9.67817582,15.4602 9.58718681,15.4078 L1.30105495,10.6482 C1.01542857,10.4844 0.915538462,10.1174 1.07753846,9.8286 C1.23953846,9.5398 1.60369231,9.4384 1.88793407,9.603 L9.87914286,14.193 L17.9116923,9.532 C18.1961319,9.3668 18.5598901,9.466 18.7230769,9.754 C18.8864615,10.0418 18.787956,10.4092 18.5033187,10.5744 L10.1764396,15.4064 C10.0850549,15.4598 9.98279121,15.4862 9.88052747,15.4862 L9.88052747,15.4862 Z" id="Shape" sketch:type="MSShapeGroup"></path>
                <path d="M9.88052747,18.8338 C9.77925275,18.8338 9.67817582,18.8078 9.58718681,18.7554 L1.30105495,13.9958 C1.01542857,13.832 0.915538462,13.465 1.07753846,13.1762 C1.23953846,12.8878 1.60369231,12.7866 1.88793407,12.9506 L9.87914286,17.5406 L17.9116923,12.8796 C18.1961319,12.7138 18.5598901,12.8138 18.7230769,13.1016 C18.8864615,13.3894 18.787956,13.7568 18.5033187,13.922 L10.1764396,18.754 C10.0850549,18.8074 9.98279121,18.8338 9.88052747,18.8338 L9.88052747,18.8338 Z" id="Shape" sketch:type="MSShapeGroup"></path>
            </g>
        </g>
    </g>
</svg>