<?xml version="1.0" encoding="UTF-8" standalone="no"?>
<svg width="20px" height="20px" viewBox="0 0 20 20" version="1.1" xmlns="http://www.w3.org/2000/svg" xmlns:xlink="http://www.w3.org/1999/xlink" xmlns:sketch="http://www.bohemiancoding.com/sketch/ns">
    <!-- Generator: sketchtool 3.4 (375) - http://www.bohemiancoding.com/sketch -->
    <title>nav-bar-icon-settings</title>
    <desc>Created with sketchtool.</desc>
    <defs></defs>
    <g id="frame" stroke="none" stroke-width="1" fill="none" fill-rule="evenodd" sketch:type="MSPage">
        <g sketch:type="MSArtboardGroup" transform="translate(-18.000000, -274.000000)" id="nav-bar" fill="#000000">
            <g sketch:type="MSLayerGroup">
                <g id="nav-menu-style-2" transform="translate(0.000000, 64.000000)" sketch:type="MSShapeGroup">
                    <g id="settings" transform="translate(0.000000, 200.000000)">
                        <g id="nav-bar-icon-settings" transform="translate(18.000000, 10.000000)">
                            <path d="M10.4195,10.0855467 L10.4195,1.49577333 C10.4195,1.22192 10.2005,1 9.93025,1 C9.66,1 9.441,1.22192 9.441,1.49577333 L9.441,10.0855467 C8.243,10.3181067 7.33425,11.3866667 7.33425,12.6677733 C7.33425,13.9486267 8.243,15.0171867 9.441,15.25 L9.441,19.0854667 C9.441,19.35932 9.66,19.58124 9.93025,19.58124 C10.2005,19.58124 10.4195,19.35932 10.4195,19.0854667 L10.4195,15.25 C11.6175,15.01744 12.52625,13.94888 12.52625,12.6677733 C12.52625,11.3866667 11.6175,10.3181067 10.4195,10.0855467 L10.4195,10.0855467 Z M9.93025,14.3065867 C9.03825,14.3065867 8.31275,13.5714133 8.31275,12.66752 C8.31275,11.7636267 9.03825,11.0284533 9.93025,11.0284533 C10.82225,11.0284533 11.54775,11.7636267 11.54775,12.66752 C11.54775,13.5714133 10.82225,14.3065867 9.93025,14.3065867 L9.93025,14.3065867 Z M4.08525,5.68970667 L4.08525,1.49577333 C4.08525,1.22192 3.86625,1 3.596,1 C3.32575,1 3.10675,1.22192 3.10675,1.49577333 L3.10675,5.68970667 C1.90875,5.92226667 1,6.99082667 1,8.27193333 C1,9.55278667 1.9085,10.6213467 3.10675,10.85416 L3.10675,18.8939467 C3.10675,19.1678 3.32575,19.38972 3.596,19.38972 C3.86625,19.38972 4.08525,19.1678 4.08525,18.8939467 L4.08525,10.8539067 C5.28325,10.6213467 6.192,9.55278667 6.192,8.27168 C6.192,6.99082667 5.2835,5.92226667 4.08525,5.68970667 L4.08525,5.68970667 Z M3.59625,9.91074667 C2.70425,9.91074667 1.97875,9.17557333 1.97875,8.27168 C1.97875,7.37361333 2.6955,6.64274667 3.5795,6.63337333 C3.58525,6.63362667 3.5905,6.63514667 3.59625,6.63514667 C3.602,6.63514667 3.60725,6.63362667 3.613,6.63337333 C4.49725,6.64249333 5.21375,7.37361333 5.21375,8.27168 C5.21375,9.17557333 4.488,9.91074667 3.59625,9.91074667 L3.59625,9.91074667 Z M18.82025,8.27168 C18.82025,6.99082667 17.9115,5.92226667 16.7135,5.68945333 L16.7135,1.73796 C16.7135,1.46410667 16.4945,1.24218667 16.22425,1.24218667 C15.954,1.24218667 15.735,1.46410667 15.735,1.73796 L15.735,5.68945333 C14.537,5.92201333 13.62825,6.99057333 13.62825,8.27168 C13.62825,9.55253333 14.537,10.6210933 15.735,10.8539067 L15.735,19.3276533 C15.735,19.6015067 15.954,19.8234267 16.22425,19.8234267 C16.4945,19.8234267 16.7135,19.6015067 16.7135,19.3276533 L16.7135,10.8539067 C17.9115,10.6210933 18.82025,9.55253333 18.82025,8.27168 L18.82025,8.27168 Z M16.22425,9.91074667 C15.33225,9.91074667 14.60675,9.17557333 14.60675,8.27168 C14.60675,7.36778667 15.33225,6.63261333 16.22425,6.63261333 C17.11625,6.63261333 17.84175,7.36778667 17.84175,8.27168 C17.842,9.17557333 17.11625,9.91074667 16.22425,9.91074667 L16.22425,9.91074667 Z" id="Shape"></path>
                        </g>
                    </g>
                </g>
            </g>
        </g>
    </g>
</svg>