<?xml version="1.0" encoding="UTF-8" standalone="no"?>
<svg width="20px" height="20px" viewBox="0 0 20 20" version="1.1" xmlns="http://www.w3.org/2000/svg" xmlns:xlink="http://www.w3.org/1999/xlink" xmlns:sketch="http://www.bohemiancoding.com/sketch/ns">
    <!-- Generator: sketchtool 3.4 (375) - http://www.bohemiancoding.com/sketch -->
    <title>nav-bar-icon-dashboard-white</title>
    <desc>Created with sketchtool.</desc>
    <defs></defs>
    <g id="frame" stroke="none" stroke-width="1" fill="none" fill-rule="evenodd" sketch:type="MSPage">
        <g id="frame-additional-assets" sketch:type="MSArtboardGroup" transform="translate(-40.000000, -10.000000)" fill="#FFFFFF">
            <g id="nav-bar-icon-dashboard-white" sketch:type="MSLayerGroup" transform="translate(39.000000, 9.000000)">
                <g id="Group" transform="translate(0.666667, 0.583333)" sketch:type="MSShapeGroup">
                    <path d="M18.125,10.8333333 L16.875,10.8333333 C16.625,10.8333333 16.4583333,10.6666667 16.4583333,10.4166667 C16.4583333,10.1666667 16.625,10 16.875,10 L18.125,10 C18.375,10 18.5416667,10.1666667 18.5416667,10.4166667 C18.5416667,10.6666667 18.375,10.8333333 18.125,10.8333333 L18.125,10.8333333 Z" id="Shape"></path>
                    <path d="M3.79166667,10.8333333 L2.54166667,10.8333333 C2.29166667,10.8333333 2.125,10.6666667 2.125,10.4166667 C2.125,10.1666667 2.29166667,10 2.54166667,10 L3.79166667,10 C4.04166667,10 4.20833333,10.1666667 4.20833333,10.4166667 C4.20833333,10.6666667 4.04166667,10.8333333 3.79166667,10.8333333 L3.79166667,10.8333333 Z" id="Shape"></path>
                    <path d="M14.9583333,6.20833333 C14.8333333,6.20833333 14.75,6.16666667 14.6666667,6.08333333 C14.5,5.91666667 14.5,5.66666667 14.6666667,5.5 L15.5416667,4.625 C15.7083333,4.45833333 15.9583333,4.45833333 16.125,4.625 C16.2916667,4.79166667 16.2916667,5.04166667 16.125,5.20833333 L15.25,6.08333333 C15.1666667,6.16666667 15.0416667,6.20833333 14.9583333,6.20833333 L14.9583333,6.20833333 Z" id="Shape"></path>
                    <path d="M5.70833333,6.20833333 C5.58333333,6.20833333 5.5,6.16666667 5.41666667,6.08333333 L4.54166667,5.20833333 C4.375,5.04166667 4.375,4.79166667 4.54166667,4.625 C4.70833333,4.45833333 4.95833333,4.45833333 5.125,4.625 L6,5.5 C6.16666667,5.66666667 6.16666667,5.91666667 6,6.08333333 C5.91666667,6.16666667 5.83333333,6.20833333 5.70833333,6.20833333 L5.70833333,6.20833333 Z" id="Shape"></path>
                    <path d="M10.25,11.9583333 C10.2083333,11.9583333 10.1666667,11.9583333 10.125,11.9166667 C9.91666667,11.8333333 9.79166667,11.5833333 9.875,11.375 L12,5.20833333 C12.0833333,5 12.3333333,4.875 12.5416667,4.95833333 C12.75,5.04166667 12.875,5.29166667 12.7916667,5.5 L10.625,11.6666667 C10.5833333,11.8333333 10.4166667,11.9583333 10.25,11.9583333 L10.25,11.9583333 Z" id="Shape"></path>
                    <path d="M10.3333333,20.2083333 C4.91666667,20.2083333 0.541666667,15.8333333 0.541666667,10.4166667 C0.541666667,5 4.91666667,0.625 10.3333333,0.625 C15.75,0.625 20.125,5 20.125,10.4166667 C20.125,15.8333333 15.75,20.2083333 10.3333333,20.2083333 L10.3333333,20.2083333 Z M10.3333333,1.45833333 C5.375,1.45833333 1.375,5.45833333 1.375,10.4166667 C1.375,15.375 5.375,19.375 10.3333333,19.375 C15.2916667,19.375 19.2916667,15.375 19.2916667,10.4166667 C19.2916667,5.45833333 15.2916667,1.45833333 10.3333333,1.45833333 L10.3333333,1.45833333 Z" id="Shape"></path>
                    <path d="M18.8333333,14.125 L1.625,14.125 C1.375,14.125 1.20833333,13.9583333 1.20833333,13.7083333 C1.20833333,13.4583333 1.375,13.2916667 1.625,13.2916667 L18.8333333,13.2916667 C19.0833333,13.2916667 19.25,13.4583333 19.25,13.7083333 C19.25,13.9583333 19.0833333,14.125 18.8333333,14.125 L18.8333333,14.125 Z" id="Shape"></path>
                    <path d="M12.4166667,14.125 L8.04166667,14.125 C7.79166667,14.125 7.625,13.9583333 7.625,13.7083333 C7.625,12.2916667 8.79166667,11.125 10.2083333,11.125 C11.625,11.125 12.7916667,12.2916667 12.7916667,13.7083333 C12.8333333,13.9583333 12.625,14.125 12.4166667,14.125 L12.4166667,14.125 Z M8.54166667,13.2916667 L11.9583333,13.2916667 C11.75,12.5416667 11.0833333,11.9583333 10.25,11.9583333 C9.41666667,11.9583333 8.70833333,12.5416667 8.54166667,13.2916667 L8.54166667,13.2916667 Z" id="Shape"></path>
                    <path d="M10.3333333,4.29166667 C10.0833333,4.29166667 9.91666667,4.125 9.91666667,3.875 L9.91666667,2.625 C9.91666667,2.375 10.0833333,2.20833333 10.3333333,2.20833333 C10.5833333,2.20833333 10.75,2.375 10.75,2.625 L10.75,3.875 C10.75,4.125 10.5833333,4.29166667 10.3333333,4.29166667 L10.3333333,4.29166667 Z" id="Shape"></path>
                </g>
            </g>
        </g>
    </g>
</svg>