<?xml version="1.0" encoding="UTF-8" standalone="no"?>
<svg width="20px" height="20px" viewBox="0 0 20 20" version="1.1" xmlns="http://www.w3.org/2000/svg" xmlns:xlink="http://www.w3.org/1999/xlink" xmlns:sketch="http://www.bohemiancoding.com/sketch/ns">
    <!-- Generator: sketchtool 3.4 (375) - http://www.bohemiancoding.com/sketch -->
    <title>nav-bar-icon-chart-white</title>
    <desc>Created with sketchtool.</desc>
    <defs></defs>
    <g id="frame" stroke="none" stroke-width="1" fill="none" fill-rule="evenodd" sketch:type="MSPage">
        <g sketch:type="MSArtboardGroup" transform="translate(-18.000000, -234.000000)" id="nav-bar" fill="#FFFFFF">
            <g sketch:type="MSLayerGroup">
                <g id="nav-menu-style-2" transform="translate(0.000000, 64.000000)" sketch:type="MSShapeGroup">
                    <g id="reports" transform="translate(0.000000, 160.000000)">
                        <g id="nav-bar-icon-chart-white" transform="translate(18.000000, 10.000000)">
                            <g id="Group" transform="translate(1.000000, 1.000000)">
                                <path d="M11.9311215,5.87091897 C11.9759976,6.03138361 12,6.20045356 12,6.375 C12,7.4085 11.1585,8.25 10.125,8.25 C9.74347811,8.25 9.38812114,8.13532412 9.09160335,7.93864665 L7.18864665,9.84160335 C7.38532412,10.1381211 7.5,10.4934781 7.5,10.875 C7.5,11.9085 6.6585,12.75 5.625,12.75 C4.5915,12.75 3.75,11.9085 3.75,10.875 C3.75,9.8415 4.5915,9 5.625,9 C6.00652189,9 6.36187886,9.11467588 6.65839665,9.31135335 L8.56135335,7.40839665 C8.36467588,7.11187886 8.25,6.75652189 8.25,6.375 C8.25,5.3415 9.0915,4.5 10.125,4.5 C10.7143444,4.5 11.2412551,4.77363487 11.5852966,5.20046895 L13.5686429,3.87823805 C13.5239184,3.71802431 13.5,3.54924082 13.5,3.375 C13.5,2.3415 14.3415,1.5 15.375,1.5 C16.4085,1.5 17.25,2.3415 17.25,3.375 C17.25,4.4085 16.4085,5.25 15.375,5.25 C14.7853563,5.25 14.2582096,4.97608706 13.9141793,4.54888048 L11.9311215,5.87091897 Z M1.5,16.5 L1.5,17.625 C1.5,17.832 1.668,18 1.875,18 C2.082,18 2.25,17.832 2.25,17.625 L2.25,16.5 L17.625,16.5 C17.832,16.5 18,16.332 18,16.125 C18,15.918 17.832,15.75 17.625,15.75 L2.25,15.75 L2.25,0.375 C2.25,0.168 2.082,0 1.875,0 C1.668,0 1.5,0.168 1.5,0.375 L1.5,15.75 L0.375,15.75 C0.168,15.75 0,15.918 0,16.125 C0,16.332 0.168,16.5 0.375,16.5 L1.5,16.5 Z M5.625,15 C5.418,15 5.25,14.832 5.25,14.625 L5.25,13.875 C5.25,13.668 5.418,13.5 5.625,13.5 C5.832,13.5 6,13.668 6,13.875 L6,14.625 C6,14.832 5.832,15 5.625,15 Z M10.125,15 C9.918,15 9.75,14.832 9.75,14.625 L9.75,9.375 C9.75,9.168 9.918,9 10.125,9 C10.332,9 10.5,9.168 10.5,9.375 L10.5,14.625 C10.5,14.832 10.332,15 10.125,15 Z M15.375,15 C15.168,15 15,14.832 15,14.625 L15,6.375 C15,6.168 15.168,6 15.375,6 C15.582,6 15.75,6.168 15.75,6.375 L15.75,14.625 C15.75,14.832 15.582,15 15.375,15 Z" id="Shape"></path>
                            </g>
                        </g>
                    </g>
                </g>
            </g>
        </g>
    </g>
</svg>