<?xml version="1.0" encoding="UTF-8" standalone="no"?>
<svg width="20px" height="20px" viewBox="0 0 20 20" version="1.1" xmlns="http://www.w3.org/2000/svg" xmlns:xlink="http://www.w3.org/1999/xlink" xmlns:sketch="http://www.bohemiancoding.com/sketch/ns">
    <!-- Generator: sketchtool 3.4 (375) - http://www.bohemiancoding.com/sketch -->
    <title>nav-bar-icon-dashboard</title>
    <desc>Created with sketchtool.</desc>
    <defs></defs>
    <g id="frame" stroke="none" stroke-width="1" fill="none" fill-rule="evenodd" sketch:type="MSPage">
        <g sketch:type="MSArtboardGroup" transform="translate(-18.000000, -74.000000)" id="nav-bar" fill="#000000">
            <g sketch:type="MSLayerGroup">
                <g id="nav-menu-style-2" transform="translate(0.000000, 64.000000)" sketch:type="MSShapeGroup">
                    <g id="dashboard">
                        <g id="nav-bar-icon-dashboard" transform="translate(18.000000, 10.000000)">
                            <path d="M10,19.7916667 C4.58333333,19.7916667 0.208333333,15.4166667 0.208333333,10 C0.208333333,4.58333333 4.58333333,0.208333333 10,0.208333333 C15.4166667,0.208333333 19.7916667,4.58333333 19.7916667,10 C19.7916667,15.4166667 15.4166667,19.7916667 10,19.7916667 L10,19.7916667 Z M10,1.04166667 C5.04166667,1.04166667 1.04166667,5.04166667 1.04166667,10 C1.04166667,14.9583333 5.04166667,18.9583333 10,18.9583333 C14.9583333,18.9583333 18.9583333,14.9583333 18.9583333,10 C18.9583333,5.04166667 14.9583333,1.04166667 10,1.04166667 L10,1.04166667 Z" id="Shape"></path>
                            <path d="M18.5,13.7083333 L1.29166667,13.7083333 C1.04166667,13.7083333 0.875,13.5416667 0.875,13.2916667 C0.875,13.0416667 1.04166667,12.875 1.29166667,12.875 L18.5,12.875 C18.75,12.875 18.9166667,13.0416667 18.9166667,13.2916667 C18.9166667,13.5416667 18.75,13.7083333 18.5,13.7083333 L18.5,13.7083333 Z" id="Shape"></path>
                            <path d="M12.0833333,13.7083333 L7.70833333,13.7083333 C7.45833333,13.7083333 7.29166667,13.5416667 7.29166667,13.2916667 C7.29166667,11.875 8.45833333,10.7083333 9.875,10.7083333 C11.2916667,10.7083333 12.4583333,11.875 12.4583333,13.2916667 C12.5,13.5416667 12.2916667,13.7083333 12.0833333,13.7083333 L12.0833333,13.7083333 Z M8.20833333,12.875 L11.625,12.875 C11.4166667,12.125 10.75,11.5416667 9.91666667,11.5416667 C9.08333333,11.5416667 8.375,12.125 8.20833333,12.875 L8.20833333,12.875 Z" id="Shape"></path>
                            <path d="M10,3.875 C9.75,3.875 9.58333333,3.70833333 9.58333333,3.45833333 L9.58333333,2.20833333 C9.58333333,1.95833333 9.75,1.79166667 10,1.79166667 C10.25,1.79166667 10.4166667,1.95833333 10.4166667,2.20833333 L10.4166667,3.45833333 C10.4166667,3.70833333 10.25,3.875 10,3.875 L10,3.875 Z" id="Shape"></path>
                            <g id="Group" transform="translate(1.666667, 9.583333)">
                                <path d="M16.125,0.833333333 L14.875,0.833333333 C14.625,0.833333333 14.4583333,0.666666667 14.4583333,0.416666667 C14.4583333,0.166666667 14.625,0 14.875,0 L16.125,0 C16.375,0 16.5416667,0.166666667 16.5416667,0.416666667 C16.5416667,0.666666667 16.375,0.833333333 16.125,0.833333333 L16.125,0.833333333 Z" id="Shape"></path>
                                <path d="M1.79166667,0.833333333 L0.541666667,0.833333333 C0.291666667,0.833333333 0.125,0.666666667 0.125,0.416666667 C0.125,0.166666667 0.291666667,0 0.541666667,0 L1.79166667,0 C2.04166667,0 2.20833333,0.166666667 2.20833333,0.416666667 C2.20833333,0.666666667 2.04166667,0.833333333 1.79166667,0.833333333 L1.79166667,0.833333333 Z" id="Shape"></path>
                            </g>
                            <path d="M14.625,5.79166667 C14.5,5.79166667 14.4166667,5.75 14.3333333,5.66666667 C14.1666667,5.5 14.1666667,5.25 14.3333333,5.08333333 L15.2083333,4.20833333 C15.375,4.04166667 15.625,4.04166667 15.7916667,4.20833333 C15.9583333,4.375 15.9583333,4.625 15.7916667,4.79166667 L14.9166667,5.66666667 C14.8333333,5.75 14.7083333,5.79166667 14.625,5.79166667 L14.625,5.79166667 Z" id="Shape"></path>
                            <path d="M5.375,5.79166667 C5.25,5.79166667 5.16666667,5.75 5.08333333,5.66666667 L4.20833333,4.79166667 C4.04166667,4.625 4.04166667,4.375 4.20833333,4.20833333 C4.375,4.04166667 4.625,4.04166667 4.79166667,4.20833333 L5.66666667,5.08333333 C5.83333333,5.25 5.83333333,5.5 5.66666667,5.66666667 C5.58333333,5.75 5.5,5.79166667 5.375,5.79166667 L5.375,5.79166667 Z" id="Shape"></path>
                            <path d="M9.91666667,11.5416667 C9.875,11.5416667 9.83333333,11.5416667 9.79166667,11.5 C9.58333333,11.4166667 9.45833333,11.1666667 9.54166667,10.9583333 L11.6666667,4.79166667 C11.75,4.58333333 12,4.45833333 12.2083333,4.54166667 C12.4166667,4.625 12.5416667,4.875 12.4583333,5.08333333 L10.2916667,11.25 C10.25,11.4166667 10.0833333,11.5416667 9.91666667,11.5416667 L9.91666667,11.5416667 Z" id="Shape"></path>
                        </g>
                    </g>
                </g>
            </g>
        </g>
    </g>
</svg>