<?xml version="1.0" encoding="UTF-8" standalone="no"?>
<svg width="200px" height="60px" viewBox="0 0 200 60" version="1.1" xmlns="http://www.w3.org/2000/svg" xmlns:xlink="http://www.w3.org/1999/xlink" xmlns:sketch="http://www.bohemiancoding.com/sketch/ns">
    <!-- Generator: sketchtool 3.5.1 (25234) - http://www.bohemiancoding.com/sketch -->
    <title>sprite</title>
    <desc>Created with sketchtool.</desc>
    <defs>
        <rect id="path-1" x="0" y="0" width="48" height="20" rx="2"></rect>
        <rect id="path-3" x="0" y="0" width="48" height="20" rx="2"></rect>
        <rect id="path-5" x="0" y="0" width="20" height="20"></rect>
        <rect id="path-7" x="0" y="0" width="20" height="20"></rect>
        <rect id="path-9" x="0" y="0" width="20" height="20"></rect>
        <rect id="path-11" x="0" y="0" width="20" height="20"></rect>
        <rect id="path-13" x="0" y="0" width="20" height="20"></rect>
    </defs>
    <g id="frame" stroke="none" stroke-width="1" fill="none" fill-rule="evenodd" sketch:type="MSPage">
        <g id="sprite" sketch:type="MSArtboardGroup">
            <g id="nav-bar-logout-button-pressed" sketch:type="MSLayerGroup" transform="translate(140.000000, 0.000000)">
                <mask id="mask-2" sketch:name="Mask" fill="white">
                    <use xlink:href="#path-1"></use>
                </mask>
                <use id="Mask" stroke="#D8D8D8" fill="#E6E6E6" sketch:type="MSShapeGroup" xlink:href="#path-1"></use>
                <text id="Logout" sketch:type="MSTextLayer" mask="url(#mask-2)" font-family="Open Sans" font-size="10" font-weight="normal" letter-spacing="0.142857149" fill="#7F7F7F">
                    <tspan x="7" y="13">Logout</tspan>
                </text>
            </g>
            <g id="nav-bar-logout-button" sketch:type="MSLayerGroup" transform="translate(140.000000, 20.000000)">
                <mask id="mask-4" sketch:name="Mask" fill="white">
                    <use xlink:href="#path-3"></use>
                </mask>
                <use id="Mask" stroke="#D8D8D8" fill="#FDFDFD" sketch:type="MSShapeGroup" xlink:href="#path-3"></use>
                <text id="Logout" sketch:type="MSTextLayer" mask="url(#mask-4)" font-family="Open Sans" font-size="10" font-weight="normal" letter-spacing="0.142857149" fill="#7F7F7F">
                    <tspan x="7" y="13">Logout</tspan>
                </text>
            </g>
            <g id="nav-bar-icon-text-white" sketch:type="MSLayerGroup" transform="translate(62.000000, 3.000000)" fill="#FFFFFF">
                <rect id="Rectangle-65" sketch:type="MSShapeGroup" x="0" y="0" width="16" height="1" rx="1"></rect>
                <rect id="Rectangle-65" sketch:type="MSShapeGroup" x="0" y="3" width="16" height="1" rx="1"></rect>
                <rect id="Rectangle-65" sketch:type="MSShapeGroup" x="0" y="6" width="16" height="1" rx="1"></rect>
                <rect id="Rectangle-65" sketch:type="MSShapeGroup" x="0" y="9" width="16" height="1" rx="1"></rect>
                <rect id="Rectangle-65" sketch:type="MSShapeGroup" x="0" y="12" width="11" height="1" rx="1"></rect>
            </g>
            <g id="nav-bar-icon-chart-white" sketch:type="MSLayerGroup" transform="translate(81.000000, 1.000000)" fill="#FFFFFF">
                <g id="Group" sketch:type="MSShapeGroup">
                    <path d="M11.9311215,5.87091897 C11.9759976,6.03138361 12,6.20045356 12,6.375 C12,7.4085 11.1585,8.25 10.125,8.25 C9.74347811,8.25 9.38812114,8.13532412 9.09160335,7.93864665 L7.18864665,9.84160335 C7.38532412,10.1381211 7.5,10.4934781 7.5,10.875 C7.5,11.9085 6.6585,12.75 5.625,12.75 C4.5915,12.75 3.75,11.9085 3.75,10.875 C3.75,9.8415 4.5915,9 5.625,9 C6.00652189,9 6.36187886,9.11467588 6.65839665,9.31135335 L8.56135335,7.40839665 C8.36467588,7.11187886 8.25,6.75652189 8.25,6.375 C8.25,5.3415 9.0915,4.5 10.125,4.5 C10.7143444,4.5 11.2412551,4.77363487 11.5852966,5.20046895 L13.5686429,3.87823805 C13.5239184,3.71802431 13.5,3.54924082 13.5,3.375 C13.5,2.3415 14.3415,1.5 15.375,1.5 C16.4085,1.5 17.25,2.3415 17.25,3.375 C17.25,4.4085 16.4085,5.25 15.375,5.25 C14.7853563,5.25 14.2582096,4.97608706 13.9141793,4.54888048 L11.9311215,5.87091897 Z M1.5,16.5 L1.5,17.625 C1.5,17.832 1.668,18 1.875,18 C2.082,18 2.25,17.832 2.25,17.625 L2.25,16.5 L17.625,16.5 C17.832,16.5 18,16.332 18,16.125 C18,15.918 17.832,15.75 17.625,15.75 L2.25,15.75 L2.25,0.375 C2.25,0.168 2.082,0 1.875,0 C1.668,0 1.5,0.168 1.5,0.375 L1.5,15.75 L0.375,15.75 C0.168,15.75 0,15.918 0,16.125 C0,16.332 0.168,16.5 0.375,16.5 L1.5,16.5 Z M5.625,15 C5.418,15 5.25,14.832 5.25,14.625 L5.25,13.875 C5.25,13.668 5.418,13.5 5.625,13.5 C5.832,13.5 6,13.668 6,13.875 L6,14.625 C6,14.832 5.832,15 5.625,15 Z M10.125,15 C9.918,15 9.75,14.832 9.75,14.625 L9.75,9.375 C9.75,9.168 9.918,9 10.125,9 C10.332,9 10.5,9.168 10.5,9.375 L10.5,14.625 C10.5,14.832 10.332,15 10.125,15 Z M15.375,15 C15.168,15 15,14.832 15,14.625 L15,6.375 C15,6.168 15.168,6 15.375,6 C15.582,6 15.75,6.168 15.75,6.375 L15.75,14.625 C15.75,14.832 15.582,15 15.375,15 Z" id="Shape"></path>
                </g>
            </g>
            <g id="nav-bar-icon-chat" sketch:type="MSLayerGroup" transform="translate(21.000000, 21.000000)" fill="#000000">
                <path d="M2.90557895,0 C1.90042105,0 0,0.600213115 0,2.86588525 L0,12.4608852 C0,14.7268689 1.90042105,15.3267705 2.90557895,15.3267705 L8.734375,15.3267708 L9.078125,14.3929672 L2.90557895,14.3923443 C2.706,14.3923443 0.948,14.3235082 0.948,12.4608852 L0.948,2.86619672 C0.948,1.00606557 2.706,0.934737705 2.90557895,0.934737705 L15.0634737,0.934737705 C16.9518947,0.934737705 17.0216842,2.67214754 17.0248421,2.86619672 L17.0248421,12.4608852 C17.0248421,14.3235082 15.2633684,14.3929672 15.0634737,14.3929672 L12.6334737,14.3929672 C12.3726316,14.3929672 12.1607368,14.6010328 12.1607368,14.8614262 L12.1607368,17.3332951 L9.31957895,14.5300164 C9.23393434,14.4459721 9.078125,14.3929672 9.078125,14.3929672 L8.734375,15.3267708 L12.2974737,18.7866393 C12.39,18.8785246 12.5090526,18.924 12.6334737,18.924 C12.6937895,18.924 12.7547368,18.9124754 12.8125263,18.8894262 C12.9893684,18.8152951 13.1055789,18.6467869 13.1055789,18.4580328 L13.1055789,15.3267705 L15.0634737,15.3267705 C16.0683158,15.3267705 17.9690526,14.7268689 17.9690526,12.4608852 L17.9690526,2.86619672 C17.9693684,1.87477049 17.3608421,0 15.0634737,0 L2.90557895,0 Z" id="Shape" sketch:type="MSShapeGroup"></path>
                <path d="M4.12231579,5.73177049 L13.8498947,5.73177049 C14.1101053,5.73177049 14.3223158,5.52308197 14.3223158,5.26580328 C14.3223158,5.00540984 14.1101053,4.79734426 13.8498947,4.79734426 L4.12231579,4.79734426 C3.86210526,4.79734426 3.64736842,5.00603279 3.64736842,5.26580328 C3.64736842,5.52339344 3.86147368,5.73177049 4.12231579,5.73177049 L4.12231579,5.73177049 Z" id="Shape" sketch:type="MSShapeGroup"></path>
                <path d="M4.12231579,8.1295082 L13.8498947,8.1295082 C14.1101053,8.1295082 14.3223158,7.92081967 14.3223158,7.66354098 C14.3223158,7.4062623 14.1101053,7.19819672 13.8498947,7.19819672 L4.12231579,7.19819672 C3.86210526,7.19819672 3.64736842,7.4062623 3.64736842,7.66354098 C3.64736842,7.92081967 3.86147368,8.1295082 4.12231579,8.1295082 L4.12231579,8.1295082 Z" id="Shape" sketch:type="MSShapeGroup"></path>
                <path d="M4.12231579,10.5294262 L13.8498947,10.5294262 C14.1101053,10.5294262 14.3223158,10.3207377 14.3223158,10.063459 C14.3223158,9.80680328 14.1101053,9.595 13.8498947,9.595 L4.12231579,9.595 C3.86210526,9.595 3.64736842,9.80618033 3.64736842,10.063459 C3.64736842,10.3213607 3.86147368,10.5294262 4.12231579,10.5294262 L4.12231579,10.5294262 Z" id="Shape" sketch:type="MSShapeGroup"></path>
            </g>
            <g id="nav-bar-icon-cards" sketch:type="MSLayerGroup" transform="translate(41.000000, 21.000000)" fill="#4C4C4C">
                <path d="M8.88052747,11.1354 C8.77925275,11.1354 8.67817582,11.1094 8.58718681,11.057 L0.301054945,6.2972 C0.116505495,6.1914 0.00237362637,5.9946 0.000197802198,5.7806 C-0.00178021978,5.5668 0.108791209,5.3676 0.290967033,5.2582 L8.61843956,0.2506 C8.80457143,0.1382 9.03679121,0.1382 9.22410989,0.2492 L17.5098462,5.1844 C17.6918242,5.293 17.8035824,5.4918 17.8023956,5.7058 C17.801011,5.9196 17.6876703,6.1168 17.5037143,6.2234 L9.17663736,11.0554 C9.08505495,11.1088 8.98279121,11.1354 8.88052747,11.1354 L8.88052747,11.1354 Z M1.77725275,5.7626 L8.87934066,9.8422 L16.0253407,5.6956 L8.92345055,1.4656 L1.77725275,5.7626 L1.77725275,5.7626 Z" id="Shape" sketch:type="MSShapeGroup"></path>
                <path d="M8.88052747,14.4862 C8.77925275,14.4862 8.67817582,14.4602 8.58718681,14.4078 L0.301054945,9.6482 C0.0154285714,9.4844 -0.0844615385,9.1174 0.0775384615,8.8286 C0.239538462,8.5398 0.603692308,8.4384 0.887934066,8.603 L8.87914286,13.193 L16.9116923,8.532 C17.1961319,8.3668 17.5598901,8.466 17.7230769,8.754 C17.8864615,9.0418 17.787956,9.4092 17.5033187,9.5744 L9.17643956,14.4064 C9.08505495,14.4598 8.98279121,14.4862 8.88052747,14.4862 L8.88052747,14.4862 Z" id="Shape" sketch:type="MSShapeGroup"></path>
                <path d="M8.88052747,17.8338 C8.77925275,17.8338 8.67817582,17.8078 8.58718681,17.7554 L0.301054945,12.9958 C0.0154285714,12.832 -0.0844615385,12.465 0.0775384615,12.1762 C0.239538462,11.8878 0.603692308,11.7866 0.887934066,11.9506 L8.87914286,16.5406 L16.9116923,11.8796 C17.1961319,11.7138 17.5598901,11.8138 17.7230769,12.1016 C17.8864615,12.3894 17.787956,12.7568 17.5033187,12.922 L9.17643956,17.754 C9.08505495,17.8074 8.98279121,17.8338 8.88052747,17.8338 L8.88052747,17.8338 Z" id="Shape" sketch:type="MSShapeGroup"></path>
            </g>
            <g id="nav-bar-icon-text" sketch:type="MSLayerGroup" transform="translate(62.000000, 23.000000)" fill="#000000">
                <rect id="Rectangle-65" sketch:type="MSShapeGroup" x="0" y="0" width="16" height="1" rx="1"></rect>
                <rect id="Rectangle-65" sketch:type="MSShapeGroup" x="0" y="3" width="16" height="1" rx="1"></rect>
                <rect id="Rectangle-65" sketch:type="MSShapeGroup" x="0" y="6" width="16" height="1" rx="1"></rect>
                <rect id="Rectangle-65" sketch:type="MSShapeGroup" x="0" y="9" width="16" height="1" rx="1"></rect>
                <rect id="Rectangle-65" sketch:type="MSShapeGroup" x="0" y="12" width="11" height="1" rx="1"></rect>
            </g>
            <g id="nav-bar-icon-settings-white" sketch:type="MSLayerGroup" transform="translate(101.000000, 1.000000)" fill="#FFFFFF">
                <path d="M9.4195,9.08554667 L9.4195,0.495773333 C9.4195,0.22192 9.2005,0 8.93025,0 C8.66,0 8.441,0.22192 8.441,0.495773333 L8.441,9.08554667 C7.243,9.31810667 6.33425,10.3866667 6.33425,11.6677733 C6.33425,12.9486267 7.243,14.0171867 8.441,14.25 L8.441,18.0854667 C8.441,18.35932 8.66,18.58124 8.93025,18.58124 C9.2005,18.58124 9.4195,18.35932 9.4195,18.0854667 L9.4195,14.25 C10.6175,14.01744 11.52625,12.94888 11.52625,11.6677733 C11.52625,10.3866667 10.6175,9.31810667 9.4195,9.08554667 L9.4195,9.08554667 Z M8.93025,13.3065867 C8.03825,13.3065867 7.31275,12.5714133 7.31275,11.66752 C7.31275,10.7636267 8.03825,10.0284533 8.93025,10.0284533 C9.82225,10.0284533 10.54775,10.7636267 10.54775,11.66752 C10.54775,12.5714133 9.82225,13.3065867 8.93025,13.3065867 L8.93025,13.3065867 Z M3.08525,4.68970667 L3.08525,0.495773333 C3.08525,0.22192 2.86625,0 2.596,0 C2.32575,0 2.10675,0.22192 2.10675,0.495773333 L2.10675,4.68970667 C0.90875,4.92226667 -8.8817842e-16,5.99082667 -8.8817842e-16,7.27193333 C-8.8817842e-16,8.55278667 0.9085,9.62134667 2.10675,9.85416 L2.10675,17.8939467 C2.10675,18.1678 2.32575,18.38972 2.596,18.38972 C2.86625,18.38972 3.08525,18.1678 3.08525,17.8939467 L3.08525,9.85390667 C4.28325,9.62134667 5.192,8.55278667 5.192,7.27168 C5.192,5.99082667 4.2835,4.92226667 3.08525,4.68970667 L3.08525,4.68970667 Z M2.59625,8.91074667 C1.70425,8.91074667 0.97875,8.17557333 0.97875,7.27168 C0.97875,6.37361333 1.6955,5.64274667 2.5795,5.63337333 C2.58525,5.63362667 2.5905,5.63514667 2.59625,5.63514667 C2.602,5.63514667 2.60725,5.63362667 2.613,5.63337333 C3.49725,5.64249333 4.21375,6.37361333 4.21375,7.27168 C4.21375,8.17557333 3.488,8.91074667 2.59625,8.91074667 L2.59625,8.91074667 Z M17.82025,7.27168 C17.82025,5.99082667 16.9115,4.92226667 15.7135,4.68945333 L15.7135,0.73796 C15.7135,0.464106667 15.4945,0.242186667 15.22425,0.242186667 C14.954,0.242186667 14.735,0.464106667 14.735,0.73796 L14.735,4.68945333 C13.537,4.92201333 12.62825,5.99057333 12.62825,7.27168 C12.62825,8.55253333 13.537,9.62109333 14.735,9.85390667 L14.735,18.3276533 C14.735,18.6015067 14.954,18.8234267 15.22425,18.8234267 C15.4945,18.8234267 15.7135,18.6015067 15.7135,18.3276533 L15.7135,9.85390667 C16.9115,9.62109333 17.82025,8.55253333 17.82025,7.27168 L17.82025,7.27168 Z M15.22425,8.91074667 C14.33225,8.91074667 13.60675,8.17557333 13.60675,7.27168 C13.60675,6.36778667 14.33225,5.63261333 15.22425,5.63261333 C16.11625,5.63261333 16.84175,6.36778667 16.84175,7.27168 C16.842,8.17557333 16.11625,8.91074667 15.22425,8.91074667 L15.22425,8.91074667 Z" id="Shape" sketch:type="MSShapeGroup"></path>
            </g>
            <g id="nav-bar-icon-chart" sketch:type="MSLayerGroup" transform="translate(81.000000, 21.000000)" fill="#000000">
                <g id="Group" sketch:type="MSShapeGroup">
                    <path d="M11.9311215,5.87091897 C11.9759976,6.03138361 12,6.20045356 12,6.375 C12,7.4085 11.1585,8.25 10.125,8.25 C9.74347811,8.25 9.38812114,8.13532412 9.09160335,7.93864665 L7.18864665,9.84160335 C7.38532412,10.1381211 7.5,10.4934781 7.5,10.875 C7.5,11.9085 6.6585,12.75 5.625,12.75 C4.5915,12.75 3.75,11.9085 3.75,10.875 C3.75,9.8415 4.5915,9 5.625,9 C6.00652189,9 6.36187886,9.11467588 6.65839665,9.31135335 L8.56135335,7.40839665 C8.36467588,7.11187886 8.25,6.75652189 8.25,6.375 C8.25,5.3415 9.0915,4.5 10.125,4.5 C10.7143444,4.5 11.2412551,4.77363487 11.5852966,5.20046895 L13.5686429,3.87823805 C13.5239184,3.71802431 13.5,3.54924082 13.5,3.375 C13.5,2.3415 14.3415,1.5 15.375,1.5 C16.4085,1.5 17.25,2.3415 17.25,3.375 C17.25,4.4085 16.4085,5.25 15.375,5.25 C14.7853563,5.25 14.2582096,4.97608706 13.9141793,4.54888048 L11.9311215,5.87091897 Z M1.5,16.5 L1.5,17.625 C1.5,17.832 1.668,18 1.875,18 C2.082,18 2.25,17.832 2.25,17.625 L2.25,16.5 L17.625,16.5 C17.832,16.5 18,16.332 18,16.125 C18,15.918 17.832,15.75 17.625,15.75 L2.25,15.75 L2.25,0.375 C2.25,0.168 2.082,0 1.875,0 C1.668,0 1.5,0.168 1.5,0.375 L1.5,15.75 L0.375,15.75 C0.168,15.75 0,15.918 0,16.125 C0,16.332 0.168,16.5 0.375,16.5 L1.5,16.5 Z M5.625,15 C5.418,15 5.25,14.832 5.25,14.625 L5.25,13.875 C5.25,13.668 5.418,13.5 5.625,13.5 C5.832,13.5 6,13.668 6,13.875 L6,14.625 C6,14.832 5.832,15 5.625,15 Z M10.125,15 C9.918,15 9.75,14.832 9.75,14.625 L9.75,9.375 C9.75,9.168 9.918,9 10.125,9 C10.332,9 10.5,9.168 10.5,9.375 L10.5,14.625 C10.5,14.832 10.332,15 10.125,15 Z M15.375,15 C15.168,15 15,14.832 15,14.625 L15,6.375 C15,6.168 15.168,6 15.375,6 C15.582,6 15.75,6.168 15.75,6.375 L15.75,14.625 C15.75,14.832 15.582,15 15.375,15 Z" id="Shape"></path>
                </g>
            </g>
            <g id="nav-bar-icon-dashboard-white" sketch:type="MSLayerGroup">
                <mask id="mask-6" sketch:name="Mask" fill="white">
                    <use xlink:href="#path-5"></use>
                </mask>
                <use id="Mask" sketch:type="MSShapeGroup" xlink:href="#path-5"></use>
                <g id="Group" mask="url(#mask-6)" fill="#FFFFFF" sketch:type="MSShapeGroup">
                    <g transform="translate(0.375000, 0.291667)" id="Shape">
                        <path d="M16.9022817,10.1025132 L15.7366071,10.1025132 C15.5034722,10.1025132 15.3480489,9.94708995 15.3480489,9.71395503 C15.3480489,9.48082011 15.5034722,9.32539683 15.7366071,9.32539683 L16.9022817,9.32539683 C17.1354167,9.32539683 17.2908399,9.48082011 17.2908399,9.71395503 C17.2908399,9.94708995 17.1354167,10.1025132 16.9022817,10.1025132 L16.9022817,10.1025132 Z"></path>
                        <path d="M3.53587963,10.1025132 L2.37020503,10.1025132 C2.13707011,10.1025132 1.98164683,9.94708995 1.98164683,9.71395503 C1.98164683,9.48082011 2.13707011,9.32539683 2.37020503,9.32539683 L3.53587963,9.32539683 C3.76901455,9.32539683 3.92443783,9.48082011 3.92443783,9.71395503 C3.92443783,9.94708995 3.76901455,10.1025132 3.53587963,10.1025132 L3.53587963,10.1025132 Z"></path>
                        <path d="M13.9492394,5.7895172 C13.832672,5.7895172 13.7549603,5.75066138 13.6772487,5.67294974 C13.5218254,5.51752646 13.5218254,5.28439153 13.6772487,5.12896825 L14.4932209,4.31299603 C14.6486442,4.15757275 14.8817791,4.15757275 15.0372024,4.31299603 C15.1926257,4.46841931 15.1926257,4.70155423 15.0372024,4.85697751 L14.2212302,5.67294974 C14.1435185,5.75066138 14.0269511,5.7895172 13.9492394,5.7895172 L13.9492394,5.7895172 Z"></path>
                        <path d="M5.32324735,5.7895172 C5.20667989,5.7895172 5.12896825,5.75066138 5.05125661,5.67294974 L4.23528439,4.85697751 C4.07986111,4.70155423 4.07986111,4.46841931 4.23528439,4.31299603 C4.39070767,4.15757275 4.62384259,4.15757275 4.77926587,4.31299603 L5.5952381,5.12896825 C5.75066138,5.28439153 5.75066138,5.51752646 5.5952381,5.67294974 C5.51752646,5.75066138 5.43981481,5.7895172 5.32324735,5.7895172 L5.32324735,5.7895172 Z"></path>
                        <path d="M9.55853175,11.1516204 C9.51967593,11.1516204 9.48082011,11.1516204 9.44196429,11.1127646 C9.24768519,11.0350529 9.13111772,10.801918 9.20882937,10.6076389 L11.1904762,4.85697751 C11.2681878,4.66269841 11.5013228,4.54613095 11.6956019,4.62384259 C11.889881,4.70155423 12.0064484,4.93468915 11.9287368,5.12896825 L9.90823413,10.8796296 C9.86937831,11.0350529 9.71395503,11.1516204 9.55853175,11.1516204 L9.55853175,11.1516204 Z"></path>
                        <path d="M9.63624339,18.8450728 C4.58498677,18.8450728 0.505125661,14.7652116 0.505125661,9.71395503 C0.505125661,4.66269841 4.58498677,0.582837302 9.63624339,0.582837302 C14.6875,0.582837302 18.7673611,4.66269841 18.7673611,9.71395503 C18.7673611,14.7652116 14.6875,18.8450728 9.63624339,18.8450728 L9.63624339,18.8450728 Z M9.63624339,1.3599537 C5.01240079,1.3599537 1.28224206,5.09011243 1.28224206,9.71395503 C1.28224206,14.3377976 5.01240079,18.0679563 9.63624339,18.0679563 C14.260086,18.0679563 17.9902447,14.3377976 17.9902447,9.71395503 C17.9902447,5.09011243 14.260086,1.3599537 9.63624339,1.3599537 L9.63624339,1.3599537 Z"></path>
                        <path d="M17.5628307,13.172123 L1.51537698,13.172123 C1.28224206,13.172123 1.12681878,13.0166997 1.12681878,12.7835648 C1.12681878,12.5504299 1.28224206,12.3950066 1.51537698,12.3950066 L17.5628307,12.3950066 C17.7959656,12.3950066 17.9513889,12.5504299 17.9513889,12.7835648 C17.9513889,13.0166997 17.7959656,13.172123 17.5628307,13.172123 L17.5628307,13.172123 Z"></path>
                        <path d="M11.5790344,13.172123 L7.49917328,13.172123 C7.26603836,13.172123 7.11061508,13.0166997 7.11061508,12.7835648 C7.11061508,11.4624669 8.19857804,10.374504 9.51967593,10.374504 C10.8407738,10.374504 11.9287368,11.4624669 11.9287368,12.7835648 C11.9675926,13.0166997 11.7733135,13.172123 11.5790344,13.172123 L11.5790344,13.172123 Z M7.96544312,12.3950066 L11.1516204,12.3950066 C10.9573413,11.6956019 10.3356481,11.1516204 9.55853175,11.1516204 C8.78141534,11.1516204 8.1208664,11.6956019 7.96544312,12.3950066 L7.96544312,12.3950066 Z"></path>
                        <path d="M9.63624339,4.00214947 C9.40310847,4.00214947 9.24768519,3.84672619 9.24768519,3.61359127 L9.24768519,2.44791667 C9.24768519,2.21478175 9.40310847,2.05935847 9.63624339,2.05935847 C9.86937831,2.05935847 10.0248016,2.21478175 10.0248016,2.44791667 L10.0248016,3.61359127 C10.0248016,3.84672619 9.86937831,4.00214947 9.63624339,4.00214947 L9.63624339,4.00214947 Z"></path>
                    </g>
                </g>
            </g>
            <g id="nav-bar-icon-dashboard" sketch:type="MSLayerGroup" transform="translate(0.000000, 20.000000)">
                <mask id="mask-8" sketch:name="Mask" fill="white">
                    <use xlink:href="#path-7"></use>
                </mask>
                <use id="Mask" sketch:type="MSShapeGroup" xlink:href="#path-7"></use>
                <g id="Group" mask="url(#mask-8)" fill="#000000" sketch:type="MSShapeGroup">
                    <g transform="translate(0.375000, 0.291667)" id="Shape">
                        <path d="M16.9022817,10.1025132 L15.7366071,10.1025132 C15.5034722,10.1025132 15.3480489,9.94708995 15.3480489,9.71395503 C15.3480489,9.48082011 15.5034722,9.32539683 15.7366071,9.32539683 L16.9022817,9.32539683 C17.1354167,9.32539683 17.2908399,9.48082011 17.2908399,9.71395503 C17.2908399,9.94708995 17.1354167,10.1025132 16.9022817,10.1025132 L16.9022817,10.1025132 Z"></path>
                        <path d="M3.53587963,10.1025132 L2.37020503,10.1025132 C2.13707011,10.1025132 1.98164683,9.94708995 1.98164683,9.71395503 C1.98164683,9.48082011 2.13707011,9.32539683 2.37020503,9.32539683 L3.53587963,9.32539683 C3.76901455,9.32539683 3.92443783,9.48082011 3.92443783,9.71395503 C3.92443783,9.94708995 3.76901455,10.1025132 3.53587963,10.1025132 L3.53587963,10.1025132 Z"></path>
                        <path d="M13.9492394,5.7895172 C13.832672,5.7895172 13.7549603,5.75066138 13.6772487,5.67294974 C13.5218254,5.51752646 13.5218254,5.28439153 13.6772487,5.12896825 L14.4932209,4.31299603 C14.6486442,4.15757275 14.8817791,4.15757275 15.0372024,4.31299603 C15.1926257,4.46841931 15.1926257,4.70155423 15.0372024,4.85697751 L14.2212302,5.67294974 C14.1435185,5.75066138 14.0269511,5.7895172 13.9492394,5.7895172 L13.9492394,5.7895172 Z"></path>
                        <path d="M5.32324735,5.7895172 C5.20667989,5.7895172 5.12896825,5.75066138 5.05125661,5.67294974 L4.23528439,4.85697751 C4.07986111,4.70155423 4.07986111,4.46841931 4.23528439,4.31299603 C4.39070767,4.15757275 4.62384259,4.15757275 4.77926587,4.31299603 L5.5952381,5.12896825 C5.75066138,5.28439153 5.75066138,5.51752646 5.5952381,5.67294974 C5.51752646,5.75066138 5.43981481,5.7895172 5.32324735,5.7895172 L5.32324735,5.7895172 Z"></path>
                        <path d="M9.55853175,11.1516204 C9.51967593,11.1516204 9.48082011,11.1516204 9.44196429,11.1127646 C9.24768519,11.0350529 9.13111772,10.801918 9.20882937,10.6076389 L11.1904762,4.85697751 C11.2681878,4.66269841 11.5013228,4.54613095 11.6956019,4.62384259 C11.889881,4.70155423 12.0064484,4.93468915 11.9287368,5.12896825 L9.90823413,10.8796296 C9.86937831,11.0350529 9.71395503,11.1516204 9.55853175,11.1516204 L9.55853175,11.1516204 Z"></path>
                        <path d="M9.63624339,18.8450728 C4.58498677,18.8450728 0.505125661,14.7652116 0.505125661,9.71395503 C0.505125661,4.66269841 4.58498677,0.582837302 9.63624339,0.582837302 C14.6875,0.582837302 18.7673611,4.66269841 18.7673611,9.71395503 C18.7673611,14.7652116 14.6875,18.8450728 9.63624339,18.8450728 L9.63624339,18.8450728 Z M9.63624339,1.3599537 C5.01240079,1.3599537 1.28224206,5.09011243 1.28224206,9.71395503 C1.28224206,14.3377976 5.01240079,18.0679563 9.63624339,18.0679563 C14.260086,18.0679563 17.9902447,14.3377976 17.9902447,9.71395503 C17.9902447,5.09011243 14.260086,1.3599537 9.63624339,1.3599537 L9.63624339,1.3599537 Z"></path>
                        <path d="M17.5628307,13.172123 L1.51537698,13.172123 C1.28224206,13.172123 1.12681878,13.0166997 1.12681878,12.7835648 C1.12681878,12.5504299 1.28224206,12.3950066 1.51537698,12.3950066 L17.5628307,12.3950066 C17.7959656,12.3950066 17.9513889,12.5504299 17.9513889,12.7835648 C17.9513889,13.0166997 17.7959656,13.172123 17.5628307,13.172123 L17.5628307,13.172123 Z"></path>
                        <path d="M11.5790344,13.172123 L7.49917328,13.172123 C7.26603836,13.172123 7.11061508,13.0166997 7.11061508,12.7835648 C7.11061508,11.4624669 8.19857804,10.374504 9.51967593,10.374504 C10.8407738,10.374504 11.9287368,11.4624669 11.9287368,12.7835648 C11.9675926,13.0166997 11.7733135,13.172123 11.5790344,13.172123 L11.5790344,13.172123 Z M7.96544312,12.3950066 L11.1516204,12.3950066 C10.9573413,11.6956019 10.3356481,11.1516204 9.55853175,11.1516204 C8.78141534,11.1516204 8.1208664,11.6956019 7.96544312,12.3950066 L7.96544312,12.3950066 Z"></path>
                        <path d="M9.63624339,4.00214947 C9.40310847,4.00214947 9.24768519,3.84672619 9.24768519,3.61359127 L9.24768519,2.44791667 C9.24768519,2.21478175 9.40310847,2.05935847 9.63624339,2.05935847 C9.86937831,2.05935847 10.0248016,2.21478175 10.0248016,2.44791667 L10.0248016,3.61359127 C10.0248016,3.84672619 9.86937831,4.00214947 9.63624339,4.00214947 L9.63624339,4.00214947 Z"></path>
                    </g>
                </g>
            </g>
            <g id="nav-bar-icon-chat-white" sketch:type="MSLayerGroup" transform="translate(21.000000, 1.000000)" fill="#FFFFFF">
                <path d="M2.90557895,0 C1.90042105,0 0,0.600213115 0,2.86588525 L0,12.4608852 C0,14.7268689 1.90042105,15.3267705 2.90557895,15.3267705 L8.734375,15.3267708 L9.078125,14.3929672 L2.90557895,14.3923443 C2.706,14.3923443 0.948,14.3235082 0.948,12.4608852 L0.948,2.86619672 C0.948,1.00606557 2.706,0.934737705 2.90557895,0.934737705 L15.0634737,0.934737705 C16.9518947,0.934737705 17.0216842,2.67214754 17.0248421,2.86619672 L17.0248421,12.4608852 C17.0248421,14.3235082 15.2633684,14.3929672 15.0634737,14.3929672 L12.6334737,14.3929672 C12.3726316,14.3929672 12.1607368,14.6010328 12.1607368,14.8614262 L12.1607368,17.3332951 L9.31957895,14.5300164 C9.23393434,14.4459721 9.078125,14.3929672 9.078125,14.3929672 L8.734375,15.3267708 L12.2974737,18.7866393 C12.39,18.8785246 12.5090526,18.924 12.6334737,18.924 C12.6937895,18.924 12.7547368,18.9124754 12.8125263,18.8894262 C12.9893684,18.8152951 13.1055789,18.6467869 13.1055789,18.4580328 L13.1055789,15.3267705 L15.0634737,15.3267705 C16.0683158,15.3267705 17.9690526,14.7268689 17.9690526,12.4608852 L17.9690526,2.86619672 C17.9693684,1.87477049 17.3608421,0 15.0634737,0 L2.90557895,0 Z" id="Shape" sketch:type="MSShapeGroup"></path>
                <path d="M4.12231579,5.73177049 L13.8498947,5.73177049 C14.1101053,5.73177049 14.3223158,5.52308197 14.3223158,5.26580328 C14.3223158,5.00540984 14.1101053,4.79734426 13.8498947,4.79734426 L4.12231579,4.79734426 C3.86210526,4.79734426 3.64736842,5.00603279 3.64736842,5.26580328 C3.64736842,5.52339344 3.86147368,5.73177049 4.12231579,5.73177049 L4.12231579,5.73177049 Z" id="Shape" sketch:type="MSShapeGroup"></path>
                <path d="M4.12231579,8.1295082 L13.8498947,8.1295082 C14.1101053,8.1295082 14.3223158,7.92081967 14.3223158,7.66354098 C14.3223158,7.4062623 14.1101053,7.19819672 13.8498947,7.19819672 L4.12231579,7.19819672 C3.86210526,7.19819672 3.64736842,7.4062623 3.64736842,7.66354098 C3.64736842,7.92081967 3.86147368,8.1295082 4.12231579,8.1295082 L4.12231579,8.1295082 Z" id="Shape" sketch:type="MSShapeGroup"></path>
                <path d="M4.12231579,10.5294262 L13.8498947,10.5294262 C14.1101053,10.5294262 14.3223158,10.3207377 14.3223158,10.063459 C14.3223158,9.80680328 14.1101053,9.595 13.8498947,9.595 L4.12231579,9.595 C3.86210526,9.595 3.64736842,9.80618033 3.64736842,10.063459 C3.64736842,10.3213607 3.86147368,10.5294262 4.12231579,10.5294262 L4.12231579,10.5294262 Z" id="Shape" sketch:type="MSShapeGroup"></path>
            </g>
            <g id="nav-bar-icon-cards-white" sketch:type="MSLayerGroup" transform="translate(41.000000, 1.000000)" fill="#FFFFFF">
                <path d="M8.88052747,11.1354 C8.77925275,11.1354 8.67817582,11.1094 8.58718681,11.057 L0.301054945,6.2972 C0.116505495,6.1914 0.00237362637,5.9946 0.000197802198,5.7806 C-0.00178021978,5.5668 0.108791209,5.3676 0.290967033,5.2582 L8.61843956,0.2506 C8.80457143,0.1382 9.03679121,0.1382 9.22410989,0.2492 L17.5098462,5.1844 C17.6918242,5.293 17.8035824,5.4918 17.8023956,5.7058 C17.801011,5.9196 17.6876703,6.1168 17.5037143,6.2234 L9.17663736,11.0554 C9.08505495,11.1088 8.98279121,11.1354 8.88052747,11.1354 L8.88052747,11.1354 Z M1.77725275,5.7626 L8.87934066,9.8422 L16.0253407,5.6956 L8.92345055,1.4656 L1.77725275,5.7626 L1.77725275,5.7626 Z" id="Shape" sketch:type="MSShapeGroup"></path>
                <path d="M8.88052747,14.4862 C8.77925275,14.4862 8.67817582,14.4602 8.58718681,14.4078 L0.301054945,9.6482 C0.0154285714,9.4844 -0.0844615385,9.1174 0.0775384615,8.8286 C0.239538462,8.5398 0.603692308,8.4384 0.887934066,8.603 L8.87914286,13.193 L16.9116923,8.532 C17.1961319,8.3668 17.5598901,8.466 17.7230769,8.754 C17.8864615,9.0418 17.787956,9.4092 17.5033187,9.5744 L9.17643956,14.4064 C9.08505495,14.4598 8.98279121,14.4862 8.88052747,14.4862 L8.88052747,14.4862 Z" id="Shape" sketch:type="MSShapeGroup"></path>
                <path d="M8.88052747,17.8338 C8.77925275,17.8338 8.67817582,17.8078 8.58718681,17.7554 L0.301054945,12.9958 C0.0154285714,12.832 -0.0844615385,12.465 0.0775384615,12.1762 C0.239538462,11.8878 0.603692308,11.7866 0.887934066,11.9506 L8.87914286,16.5406 L16.9116923,11.8796 C17.1961319,11.7138 17.5598901,11.8138 17.7230769,12.1016 C17.8864615,12.3894 17.787956,12.7568 17.5033187,12.922 L9.17643956,17.754 C9.08505495,17.8074 8.98279121,17.8338 8.88052747,17.8338 L8.88052747,17.8338 Z" id="Shape" sketch:type="MSShapeGroup"></path>
            </g>
            <g id="msgai-alert-icon" sketch:type="MSLayerGroup" transform="translate(120.000000, 20.000000)">
                <mask id="mask-10" sketch:name="Mask" fill="white">
                    <use xlink:href="#path-9"></use>
                </mask>
                <use id="Mask" sketch:type="MSShapeGroup" xlink:href="#path-9"></use>
                <path d="M9.00772708,2.61361801 L1.31633578,16.4668523 C0.676436509,17.633251 0.948236201,18.7485747 2.67780924,18.7485747 L17.3212427,18.7485747 C19.0548657,18.7485747 19.3228404,17.633251 18.6827161,16.4668523 L10.83225,2.65051797 C10.6731752,2.33934332 10.4421005,1.99554371 9.95160101,2.00004371 C9.4300516,2.0094937 9.17107689,2.30244337 9.00772708,2.61361801 L9.00772708,2.61361801 Z" id="Path" stroke="#333333" sketch:type="MSShapeGroup" mask="url(#mask-10)"></path>
                <rect id="Rectangle-438" fill="#4C4C4C" sketch:type="MSShapeGroup" mask="url(#mask-10)" x="9" y="7" width="2" height="7" rx="1"></rect>
                <rect id="Rectangle-439" fill="#333333" sketch:type="MSShapeGroup" mask="url(#mask-10)" x="9" y="15" width="2" height="2" rx="1"></rect>
            </g>
            <g id="msgai-alert-icon-red" sketch:type="MSLayerGroup" transform="translate(120.000000, 40.000000)">
                <mask id="mask-12" sketch:name="Mask" fill="white">
                    <use xlink:href="#path-11"></use>
                </mask>
                <use id="Mask" sketch:type="MSShapeGroup" xlink:href="#path-11"></use>
                <path d="M9.00772708,2.61361801 L1.31633578,16.4668523 C0.676436509,17.633251 0.948236201,18.7485747 2.67780924,18.7485747 L17.3212427,18.7485747 C19.0548657,18.7485747 19.3228404,17.633251 18.6827161,16.4668523 L10.83225,2.65051797 C10.6731752,2.33934332 10.4421005,1.99554371 9.95160101,2.00004371 C9.4300516,2.0094937 9.17107689,2.30244337 9.00772708,2.61361801 L9.00772708,2.61361801 Z" id="Path" stroke="#BD0218" sketch:type="MSShapeGroup" mask="url(#mask-12)"></path>
                <rect id="Rectangle-438" fill="#BD0117" sketch:type="MSShapeGroup" mask="url(#mask-12)" x="9" y="7" width="2" height="7" rx="1"></rect>
                <rect id="Rectangle-439" fill="#BD0117" sketch:type="MSShapeGroup" mask="url(#mask-12)" x="9" y="15" width="2" height="2" rx="1"></rect>
            </g>
            <g id="msgai-alert-icon-white" sketch:type="MSLayerGroup" transform="translate(120.000000, 0.000000)">
                <mask id="mask-14" sketch:name="Mask" fill="white">
                    <use xlink:href="#path-13"></use>
                </mask>
                <use id="Mask" sketch:type="MSShapeGroup" xlink:href="#path-13"></use>
                <path d="M9.00772708,2.61361801 L1.31633578,16.4668523 C0.676436509,17.633251 0.948236201,18.7485747 2.67780924,18.7485747 L17.3212427,18.7485747 C19.0548657,18.7485747 19.3228404,17.633251 18.6827161,16.4668523 L10.83225,2.65051797 C10.6731752,2.33934332 10.4421005,1.99554371 9.95160101,2.00004371 C9.4300516,2.0094937 9.17107689,2.30244337 9.00772708,2.61361801 L9.00772708,2.61361801 Z" id="Path" stroke="#FFFFFF" sketch:type="MSShapeGroup" mask="url(#mask-14)"></path>
                <rect id="Rectangle-438" fill="#FFFFFF" sketch:type="MSShapeGroup" mask="url(#mask-14)" x="9" y="7" width="2" height="7" rx="1"></rect>
                <rect id="Rectangle-439" fill="#FFFFFF" sketch:type="MSShapeGroup" mask="url(#mask-14)" x="9" y="15" width="2" height="2" rx="1"></rect>
            </g>
            <g id="nav-bar-icon-settings" sketch:type="MSLayerGroup" transform="translate(100.000000, 20.000000)" fill="#000000">
                <path d="M10.4195,10.0855467 L10.4195,1.49577333 C10.4195,1.22192 10.2005,1 9.93025,1 C9.66,1 9.441,1.22192 9.441,1.49577333 L9.441,10.0855467 C8.243,10.3181067 7.33425,11.3866667 7.33425,12.6677733 C7.33425,13.9486267 8.243,15.0171867 9.441,15.25 L9.441,19.0854667 C9.441,19.35932 9.66,19.58124 9.93025,19.58124 C10.2005,19.58124 10.4195,19.35932 10.4195,19.0854667 L10.4195,15.25 C11.6175,15.01744 12.52625,13.94888 12.52625,12.6677733 C12.52625,11.3866667 11.6175,10.3181067 10.4195,10.0855467 L10.4195,10.0855467 Z M9.93025,14.3065867 C9.03825,14.3065867 8.31275,13.5714133 8.31275,12.66752 C8.31275,11.7636267 9.03825,11.0284533 9.93025,11.0284533 C10.82225,11.0284533 11.54775,11.7636267 11.54775,12.66752 C11.54775,13.5714133 10.82225,14.3065867 9.93025,14.3065867 L9.93025,14.3065867 Z M4.08525,5.68970667 L4.08525,1.49577333 C4.08525,1.22192 3.86625,1 3.596,1 C3.32575,1 3.10675,1.22192 3.10675,1.49577333 L3.10675,5.68970667 C1.90875,5.92226667 1,6.99082667 1,8.27193333 C1,9.55278667 1.9085,10.6213467 3.10675,10.85416 L3.10675,18.8939467 C3.10675,19.1678 3.32575,19.38972 3.596,19.38972 C3.86625,19.38972 4.08525,19.1678 4.08525,18.8939467 L4.08525,10.8539067 C5.28325,10.6213467 6.192,9.55278667 6.192,8.27168 C6.192,6.99082667 5.2835,5.92226667 4.08525,5.68970667 L4.08525,5.68970667 Z M3.59625,9.91074667 C2.70425,9.91074667 1.97875,9.17557333 1.97875,8.27168 C1.97875,7.37361333 2.6955,6.64274667 3.5795,6.63337333 C3.58525,6.63362667 3.5905,6.63514667 3.59625,6.63514667 C3.602,6.63514667 3.60725,6.63362667 3.613,6.63337333 C4.49725,6.64249333 5.21375,7.37361333 5.21375,8.27168 C5.21375,9.17557333 4.488,9.91074667 3.59625,9.91074667 L3.59625,9.91074667 Z M18.82025,8.27168 C18.82025,6.99082667 17.9115,5.92226667 16.7135,5.68945333 L16.7135,1.73796 C16.7135,1.46410667 16.4945,1.24218667 16.22425,1.24218667 C15.954,1.24218667 15.735,1.46410667 15.735,1.73796 L15.735,5.68945333 C14.537,5.92201333 13.62825,6.99057333 13.62825,8.27168 C13.62825,9.55253333 14.537,10.6210933 15.735,10.8539067 L15.735,19.3276533 C15.735,19.6015067 15.954,19.8234267 16.22425,19.8234267 C16.4945,19.8234267 16.7135,19.6015067 16.7135,19.3276533 L16.7135,10.8539067 C17.9115,10.6210933 18.82025,9.55253333 18.82025,8.27168 L18.82025,8.27168 Z M16.22425,9.91074667 C15.33225,9.91074667 14.60675,9.17557333 14.60675,8.27168 C14.60675,7.36778667 15.33225,6.63261333 16.22425,6.63261333 C17.11625,6.63261333 17.84175,7.36778667 17.84175,8.27168 C17.842,9.17557333 17.11625,9.91074667 16.22425,9.91074667 L16.22425,9.91074667 Z" id="Shape" sketch:type="MSShapeGroup"></path>
            </g>
        </g>
    </g>
</svg>