<?xml version="1.0" encoding="UTF-8" standalone="no"?>
<svg width="200px" height="60px" viewBox="0 0 200 60" version="1.1" xmlns="http://www.w3.org/2000/svg" xmlns:xlink="http://www.w3.org/1999/xlink" xmlns:sketch="http://www.bohemiancoding.com/sketch/ns">
    <!-- Generator: sketchtool 3.5.1 (25234) - http://www.bohemiancoding.com/sketch -->
    <title>sprite</title>
    <desc>Created with sketchtool.</desc>
    <defs>
        <rect id="path-1" x="0" y="0" width="48" height="20" rx="2"></rect>
        <rect id="path-3" x="0" y="0" width="48" height="20" rx="2"></rect>
        <rect id="path-5" x="0" y="0" width="20" height="20"></rect>
        <rect id="path-7" x="0" y="0" width="20" height="20"></rect>
        <rect id="path-9" x="0" y="0" width="20" height="20"></rect>
        <rect id="path-11" x="0" y="0" width="20" height="20"></rect>
        <rect id="path-13" x="0" y="0" width="20" height="20"></rect>
        <rect id="path-15" x="0" y="0" width="20" height="20"></rect>
        <rect id="path-17" x="0" y="0" width="20" height="20"></rect>
        <rect id="path-19" x="0" y="0" width="20" height="20"></rect>
        <rect id="path-21" x="0" y="0" width="20" height="20"></rect>
        <rect id="path-23" x="0" y="0" width="20" height="20"></rect>
        <rect id="path-25" x="0" y="0" width="20" height="20"></rect>
        <rect id="path-27" x="0" y="0" width="20" height="20"></rect>
        <rect id="path-29" x="0" y="0" width="20" height="20"></rect>
        <rect id="path-31" x="0" y="0" width="20" height="20"></rect>
        <rect id="path-33" x="0" y="0" width="20" height="20"></rect>
        <filter x="-50%" y="-50%" width="200%" height="200%" filterUnits="objectBoundingBox" id="filter-35">
            <feOffset dx="0" dy="0" in="SourceAlpha" result="shadowOffsetOuter1"></feOffset>
            <feGaussianBlur stdDeviation="1" in="shadowOffsetOuter1" result="shadowBlurOuter1"></feGaussianBlur>
            <feColorMatrix values="0 0 0 0 0   0 0 0 0 0   0 0 0 0 0  0 0 0 0.175 0" in="shadowBlurOuter1" type="matrix" result="shadowMatrixOuter1"></feColorMatrix>
            <feMerge>
                <feMergeNode in="shadowMatrixOuter1"></feMergeNode>
                <feMergeNode in="SourceGraphic"></feMergeNode>
            </feMerge>
        </filter>
        <filter x="-50%" y="-50%" width="200%" height="200%" filterUnits="objectBoundingBox" id="filter-36">
            <feOffset dx="0" dy="0" in="SourceAlpha" result="shadowOffsetOuter1"></feOffset>
            <feGaussianBlur stdDeviation="1" in="shadowOffsetOuter1" result="shadowBlurOuter1"></feGaussianBlur>
            <feColorMatrix values="0 0 0 0 0   0 0 0 0 0   0 0 0 0 0  0 0 0 0.175 0" in="shadowBlurOuter1" type="matrix" result="shadowMatrixOuter1"></feColorMatrix>
            <feMerge>
                <feMergeNode in="shadowMatrixOuter1"></feMergeNode>
                <feMergeNode in="SourceGraphic"></feMergeNode>
            </feMerge>
        </filter>
    </defs>
    <g id="frame" stroke="none" stroke-width="1" fill="none" fill-rule="evenodd" sketch:type="MSPage">
        <g id="sprite" sketch:type="MSArtboardGroup">
            <g id="nav-bar-logout-button-pressed" sketch:type="MSLayerGroup" transform="translate(140.000000, 0.000000)">
                <mask id="mask-2" sketch:name="Mask" fill="white">
                    <use xlink:href="#path-1"></use>
                </mask>
                <use id="Mask" stroke="#D8D8D8" fill="#E6E6E6" sketch:type="MSShapeGroup" xlink:href="#path-1"></use>
                <text id="Logout" sketch:type="MSTextLayer" mask="url(#mask-2)" font-family="Open Sans" font-size="10" font-weight="normal" letter-spacing="0.142857149" fill="#7F7F7F">
                    <tspan x="7" y="13">Logout</tspan>
                </text>
            </g>
            <g id="nav-bar-logout-button" sketch:type="MSLayerGroup" transform="translate(140.000000, 20.000000)">
                <mask id="mask-4" sketch:name="Mask" fill="white">
                    <use xlink:href="#path-3"></use>
                </mask>
                <use id="Mask" stroke="#D8D8D8" fill="#FDFDFD" sketch:type="MSShapeGroup" xlink:href="#path-3"></use>
                <text id="Logout" sketch:type="MSTextLayer" mask="url(#mask-4)" font-family="Open Sans" font-size="10" font-weight="normal" letter-spacing="0.142857149" fill="#7F7F7F">
                    <tspan x="7" y="13">Logout</tspan>
                </text>
            </g>
            <g id="nav-bar-icon-text-white" sketch:type="MSLayerGroup" transform="translate(60.000000, 0.000000)">
                <mask id="mask-6" sketch:name="Mask" fill="white">
                    <use xlink:href="#path-5"></use>
                </mask>
                <use id="Mask" sketch:type="MSShapeGroup" xlink:href="#path-5"></use>
                <rect id="Rectangle-65" fill="#FFFFFF" sketch:type="MSShapeGroup" mask="url(#mask-6)" x="2" y="3" width="16" height="1" rx="1"></rect>
                <rect id="Rectangle-65" fill="#FFFFFF" sketch:type="MSShapeGroup" mask="url(#mask-6)" x="2" y="6" width="16" height="1" rx="1"></rect>
                <rect id="Rectangle-65" fill="#FFFFFF" sketch:type="MSShapeGroup" mask="url(#mask-6)" x="2" y="9" width="16" height="1" rx="1"></rect>
                <rect id="Rectangle-65" fill="#FFFFFF" sketch:type="MSShapeGroup" mask="url(#mask-6)" x="2" y="12" width="16" height="1" rx="1"></rect>
                <rect id="Rectangle-65" fill="#FFFFFF" sketch:type="MSShapeGroup" mask="url(#mask-6)" x="2" y="15" width="11" height="1" rx="1"></rect>
            </g>
            <g id="nav-bar-icon-chart-white" sketch:type="MSLayerGroup" transform="translate(80.000000, 0.000000)">
                <mask id="mask-8" sketch:name="Mask" fill="white">
                    <use xlink:href="#path-7"></use>
                </mask>
                <use id="Mask" sketch:type="MSShapeGroup" xlink:href="#path-7"></use>
                <g id="Group" mask="url(#mask-8)" fill="#FFFFFF" sketch:type="MSShapeGroup">
                    <g transform="translate(1.000000, 1.000000)" id="Shape">
                        <path d="M11.9311215,5.87091897 C11.9759976,6.03138361 12,6.20045356 12,6.375 C12,7.4085 11.1585,8.25 10.125,8.25 C9.74347811,8.25 9.38812114,8.13532412 9.09160335,7.93864665 L7.18864665,9.84160335 C7.38532412,10.1381211 7.5,10.4934781 7.5,10.875 C7.5,11.9085 6.6585,12.75 5.625,12.75 C4.5915,12.75 3.75,11.9085 3.75,10.875 C3.75,9.8415 4.5915,9 5.625,9 C6.00652189,9 6.36187886,9.11467588 6.65839665,9.31135335 L8.56135335,7.40839665 C8.36467588,7.11187886 8.25,6.75652189 8.25,6.375 C8.25,5.3415 9.0915,4.5 10.125,4.5 C10.7143444,4.5 11.2412551,4.77363487 11.5852966,5.20046895 L13.5686429,3.87823805 C13.5239184,3.71802431 13.5,3.54924082 13.5,3.375 C13.5,2.3415 14.3415,1.5 15.375,1.5 C16.4085,1.5 17.25,2.3415 17.25,3.375 C17.25,4.4085 16.4085,5.25 15.375,5.25 C14.7853563,5.25 14.2582096,4.97608706 13.9141793,4.54888048 L11.9311215,5.87091897 Z M1.5,16.5 L1.5,17.625 C1.5,17.832 1.668,18 1.875,18 C2.082,18 2.25,17.832 2.25,17.625 L2.25,16.5 L17.625,16.5 C17.832,16.5 18,16.332 18,16.125 C18,15.918 17.832,15.75 17.625,15.75 L2.25,15.75 L2.25,0.375 C2.25,0.168 2.082,0 1.875,0 C1.668,0 1.5,0.168 1.5,0.375 L1.5,15.75 L0.375,15.75 C0.168,15.75 0,15.918 0,16.125 C0,16.332 0.168,16.5 0.375,16.5 L1.5,16.5 Z M5.625,15 C5.418,15 5.25,14.832 5.25,14.625 L5.25,13.875 C5.25,13.668 5.418,13.5 5.625,13.5 C5.832,13.5 6,13.668 6,13.875 L6,14.625 C6,14.832 5.832,15 5.625,15 Z M10.125,15 C9.918,15 9.75,14.832 9.75,14.625 L9.75,9.375 C9.75,9.168 9.918,9 10.125,9 C10.332,9 10.5,9.168 10.5,9.375 L10.5,14.625 C10.5,14.832 10.332,15 10.125,15 Z M15.375,15 C15.168,15 15,14.832 15,14.625 L15,6.375 C15,6.168 15.168,6 15.375,6 C15.582,6 15.75,6.168 15.75,6.375 L15.75,14.625 C15.75,14.832 15.582,15 15.375,15 Z"></path>
                    </g>
                </g>
            </g>
            <g id="nav-bar-icon-chat" sketch:type="MSLayerGroup" transform="translate(20.000000, 20.000000)">
                <mask id="mask-10" sketch:name="Mask" fill="white">
                    <use xlink:href="#path-9"></use>
                </mask>
                <use id="Mask" sketch:type="MSShapeGroup" xlink:href="#path-9"></use>
                <path d="M3.90557895,1 C2.90042105,1 1,1.60021311 1,3.86588525 L1,13.4608852 C1,15.7268689 2.90042105,16.3267705 3.90557895,16.3267705 L9.734375,16.3267708 L10.078125,15.3929672 L3.90557895,15.3923443 C3.706,15.3923443 1.948,15.3235082 1.948,13.4608852 L1.948,3.86619672 C1.948,2.00606557 3.706,1.9347377 3.90557895,1.9347377 L16.0634737,1.9347377 C17.9518947,1.9347377 18.0216842,3.67214754 18.0248421,3.86619672 L18.0248421,13.4608852 C18.0248421,15.3235082 16.2633684,15.3929672 16.0634737,15.3929672 L13.6334737,15.3929672 C13.3726316,15.3929672 13.1607368,15.6010328 13.1607368,15.8614262 L13.1607368,18.3332951 L10.3195789,15.5300164 C10.2339343,15.4459721 10.078125,15.3929672 10.078125,15.3929672 L9.734375,16.3267708 L13.2974737,19.7866393 C13.39,19.8785246 13.5090526,19.924 13.6334737,19.924 C13.6937895,19.924 13.7547368,19.9124754 13.8125263,19.8894262 C13.9893684,19.8152951 14.1055789,19.6467869 14.1055789,19.4580328 L14.1055789,16.3267705 L16.0634737,16.3267705 C17.0683158,16.3267705 18.9690526,15.7268689 18.9690526,13.4608852 L18.9690526,3.86619672 C18.9693684,2.87477049 18.3608421,1 16.0634737,1 L3.90557895,1 Z" id="Shape" fill="#000000" sketch:type="MSShapeGroup" mask="url(#mask-10)"></path>
                <path d="M5.12231579,6.73177049 L14.8498947,6.73177049 C15.1101053,6.73177049 15.3223158,6.52308197 15.3223158,6.26580328 C15.3223158,6.00540984 15.1101053,5.79734426 14.8498947,5.79734426 L5.12231579,5.79734426 C4.86210526,5.79734426 4.64736842,6.00603279 4.64736842,6.26580328 C4.64736842,6.52339344 4.86147368,6.73177049 5.12231579,6.73177049 L5.12231579,6.73177049 Z" id="Shape" fill="#000000" sketch:type="MSShapeGroup" mask="url(#mask-10)"></path>
                <path d="M5.12231579,9.1295082 L14.8498947,9.1295082 C15.1101053,9.1295082 15.3223158,8.92081967 15.3223158,8.66354098 C15.3223158,8.4062623 15.1101053,8.19819672 14.8498947,8.19819672 L5.12231579,8.19819672 C4.86210526,8.19819672 4.64736842,8.4062623 4.64736842,8.66354098 C4.64736842,8.92081967 4.86147368,9.1295082 5.12231579,9.1295082 L5.12231579,9.1295082 Z" id="Shape" fill="#000000" sketch:type="MSShapeGroup" mask="url(#mask-10)"></path>
                <path d="M5.12231579,11.5294262 L14.8498947,11.5294262 C15.1101053,11.5294262 15.3223158,11.3207377 15.3223158,11.063459 C15.3223158,10.8068033 15.1101053,10.595 14.8498947,10.595 L5.12231579,10.595 C4.86210526,10.595 4.64736842,10.8061803 4.64736842,11.063459 C4.64736842,11.3213607 4.86147368,11.5294262 5.12231579,11.5294262 L5.12231579,11.5294262 Z" id="Shape" fill="#000000" sketch:type="MSShapeGroup" mask="url(#mask-10)"></path>
            </g>
            <g id="nav-bar-icon-cards" sketch:type="MSLayerGroup" transform="translate(40.000000, 20.000000)">
                <mask id="mask-12" sketch:name="Mask" fill="white">
                    <use xlink:href="#path-11"></use>
                </mask>
                <use id="Mask" sketch:type="MSShapeGroup" xlink:href="#path-11"></use>
                <path d="M9.88052747,12.1354 C9.77925275,12.1354 9.67817582,12.1094 9.58718681,12.057 L1.30105495,7.2972 C1.11650549,7.1914 1.00237363,6.9946 1.0001978,6.7806 C0.99821978,6.5668 1.10879121,6.3676 1.29096703,6.2582 L9.61843956,1.2506 C9.80457143,1.1382 10.0367912,1.1382 10.2241099,1.2492 L18.5098462,6.1844 C18.6918242,6.293 18.8035824,6.4918 18.8023956,6.7058 C18.801011,6.9196 18.6876703,7.1168 18.5037143,7.2234 L10.1766374,12.0554 C10.0850549,12.1088 9.98279121,12.1354 9.88052747,12.1354 L9.88052747,12.1354 Z M2.77725275,6.7626 L9.87934066,10.8422 L17.0253407,6.6956 L9.92345055,2.4656 L2.77725275,6.7626 L2.77725275,6.7626 Z" id="Shape" fill="#4C4C4C" sketch:type="MSShapeGroup" mask="url(#mask-12)"></path>
                <path d="M9.88052747,15.4862 C9.77925275,15.4862 9.67817582,15.4602 9.58718681,15.4078 L1.30105495,10.6482 C1.01542857,10.4844 0.915538462,10.1174 1.07753846,9.8286 C1.23953846,9.5398 1.60369231,9.4384 1.88793407,9.603 L9.87914286,14.193 L17.9116923,9.532 C18.1961319,9.3668 18.5598901,9.466 18.7230769,9.754 C18.8864615,10.0418 18.787956,10.4092 18.5033187,10.5744 L10.1764396,15.4064 C10.0850549,15.4598 9.98279121,15.4862 9.88052747,15.4862 L9.88052747,15.4862 Z" id="Shape" fill="#4C4C4C" sketch:type="MSShapeGroup" mask="url(#mask-12)"></path>
                <path d="M9.88052747,18.8338 C9.77925275,18.8338 9.67817582,18.8078 9.58718681,18.7554 L1.30105495,13.9958 C1.01542857,13.832 0.915538462,13.465 1.07753846,13.1762 C1.23953846,12.8878 1.60369231,12.7866 1.88793407,12.9506 L9.87914286,17.5406 L17.9116923,12.8796 C18.1961319,12.7138 18.5598901,12.8138 18.7230769,13.1016 C18.8864615,13.3894 18.787956,13.7568 18.5033187,13.922 L10.1764396,18.754 C10.0850549,18.8074 9.98279121,18.8338 9.88052747,18.8338 L9.88052747,18.8338 Z" id="Shape" fill="#4C4C4C" sketch:type="MSShapeGroup" mask="url(#mask-12)"></path>
            </g>
            <g id="nav-bar-icon-text" sketch:type="MSLayerGroup" transform="translate(60.000000, 20.000000)">
                <mask id="mask-14" sketch:name="Mask" fill="white">
                    <use xlink:href="#path-13"></use>
                </mask>
                <use id="Mask" sketch:type="MSShapeGroup" xlink:href="#path-13"></use>
                <rect id="Rectangle-65" fill="#000000" sketch:type="MSShapeGroup" mask="url(#mask-14)" x="2" y="3" width="16" height="1" rx="1"></rect>
                <rect id="Rectangle-65" fill="#000000" sketch:type="MSShapeGroup" mask="url(#mask-14)" x="2" y="6" width="16" height="1" rx="1"></rect>
                <rect id="Rectangle-65" fill="#000000" sketch:type="MSShapeGroup" mask="url(#mask-14)" x="2" y="9" width="16" height="1" rx="1"></rect>
                <rect id="Rectangle-65" fill="#000000" sketch:type="MSShapeGroup" mask="url(#mask-14)" x="2" y="12" width="16" height="1" rx="1"></rect>
                <rect id="Rectangle-65" fill="#000000" sketch:type="MSShapeGroup" mask="url(#mask-14)" x="2" y="15" width="11" height="1" rx="1"></rect>
            </g>
            <g id="nav-bar-icon-settings-white" sketch:type="MSLayerGroup" transform="translate(100.000000, 0.000000)">
                <mask id="mask-16" sketch:name="Mask" fill="white">
                    <use xlink:href="#path-15"></use>
                </mask>
                <use id="Mask" sketch:type="MSShapeGroup" xlink:href="#path-15"></use>
                <path d="M10.4195,10.0855467 L10.4195,1.49577333 C10.4195,1.22192 10.2005,1 9.93025,1 C9.66,1 9.441,1.22192 9.441,1.49577333 L9.441,10.0855467 C8.243,10.3181067 7.33425,11.3866667 7.33425,12.6677733 C7.33425,13.9486267 8.243,15.0171867 9.441,15.25 L9.441,19.0854667 C9.441,19.35932 9.66,19.58124 9.93025,19.58124 C10.2005,19.58124 10.4195,19.35932 10.4195,19.0854667 L10.4195,15.25 C11.6175,15.01744 12.52625,13.94888 12.52625,12.6677733 C12.52625,11.3866667 11.6175,10.3181067 10.4195,10.0855467 L10.4195,10.0855467 Z M9.93025,14.3065867 C9.03825,14.3065867 8.31275,13.5714133 8.31275,12.66752 C8.31275,11.7636267 9.03825,11.0284533 9.93025,11.0284533 C10.82225,11.0284533 11.54775,11.7636267 11.54775,12.66752 C11.54775,13.5714133 10.82225,14.3065867 9.93025,14.3065867 L9.93025,14.3065867 Z M4.08525,5.68970667 L4.08525,1.49577333 C4.08525,1.22192 3.86625,1 3.596,1 C3.32575,1 3.10675,1.22192 3.10675,1.49577333 L3.10675,5.68970667 C1.90875,5.92226667 1,6.99082667 1,8.27193333 C1,9.55278667 1.9085,10.6213467 3.10675,10.85416 L3.10675,18.8939467 C3.10675,19.1678 3.32575,19.38972 3.596,19.38972 C3.86625,19.38972 4.08525,19.1678 4.08525,18.8939467 L4.08525,10.8539067 C5.28325,10.6213467 6.192,9.55278667 6.192,8.27168 C6.192,6.99082667 5.2835,5.92226667 4.08525,5.68970667 L4.08525,5.68970667 Z M3.59625,9.91074667 C2.70425,9.91074667 1.97875,9.17557333 1.97875,8.27168 C1.97875,7.37361333 2.6955,6.64274667 3.5795,6.63337333 C3.58525,6.63362667 3.5905,6.63514667 3.59625,6.63514667 C3.602,6.63514667 3.60725,6.63362667 3.613,6.63337333 C4.49725,6.64249333 5.21375,7.37361333 5.21375,8.27168 C5.21375,9.17557333 4.488,9.91074667 3.59625,9.91074667 L3.59625,9.91074667 Z M18.82025,8.27168 C18.82025,6.99082667 17.9115,5.92226667 16.7135,5.68945333 L16.7135,1.73796 C16.7135,1.46410667 16.4945,1.24218667 16.22425,1.24218667 C15.954,1.24218667 15.735,1.46410667 15.735,1.73796 L15.735,5.68945333 C14.537,5.92201333 13.62825,6.99057333 13.62825,8.27168 C13.62825,9.55253333 14.537,10.6210933 15.735,10.8539067 L15.735,19.3276533 C15.735,19.6015067 15.954,19.8234267 16.22425,19.8234267 C16.4945,19.8234267 16.7135,19.6015067 16.7135,19.3276533 L16.7135,10.8539067 C17.9115,10.6210933 18.82025,9.55253333 18.82025,8.27168 L18.82025,8.27168 Z M16.22425,9.91074667 C15.33225,9.91074667 14.60675,9.17557333 14.60675,8.27168 C14.60675,7.36778667 15.33225,6.63261333 16.22425,6.63261333 C17.11625,6.63261333 17.84175,7.36778667 17.84175,8.27168 C17.842,9.17557333 17.11625,9.91074667 16.22425,9.91074667 L16.22425,9.91074667 Z" id="Shape" fill="#FFFFFF" sketch:type="MSShapeGroup" mask="url(#mask-16)"></path>
            </g>
            <g id="nav-bar-icon-chart" sketch:type="MSLayerGroup" transform="translate(80.000000, 20.000000)">
                <mask id="mask-18" sketch:name="Mask" fill="white">
                    <use xlink:href="#path-17"></use>
                </mask>
                <use id="Mask" sketch:type="MSShapeGroup" xlink:href="#path-17"></use>
                <g id="Group" mask="url(#mask-18)" fill="#000000" sketch:type="MSShapeGroup">
                    <g transform="translate(1.000000, 1.000000)" id="Shape">
                        <path d="M11.9311215,5.87091897 C11.9759976,6.03138361 12,6.20045356 12,6.375 C12,7.4085 11.1585,8.25 10.125,8.25 C9.74347811,8.25 9.38812114,8.13532412 9.09160335,7.93864665 L7.18864665,9.84160335 C7.38532412,10.1381211 7.5,10.4934781 7.5,10.875 C7.5,11.9085 6.6585,12.75 5.625,12.75 C4.5915,12.75 3.75,11.9085 3.75,10.875 C3.75,9.8415 4.5915,9 5.625,9 C6.00652189,9 6.36187886,9.11467588 6.65839665,9.31135335 L8.56135335,7.40839665 C8.36467588,7.11187886 8.25,6.75652189 8.25,6.375 C8.25,5.3415 9.0915,4.5 10.125,4.5 C10.7143444,4.5 11.2412551,4.77363487 11.5852966,5.20046895 L13.5686429,3.87823805 C13.5239184,3.71802431 13.5,3.54924082 13.5,3.375 C13.5,2.3415 14.3415,1.5 15.375,1.5 C16.4085,1.5 17.25,2.3415 17.25,3.375 C17.25,4.4085 16.4085,5.25 15.375,5.25 C14.7853563,5.25 14.2582096,4.97608706 13.9141793,4.54888048 L11.9311215,5.87091897 Z M1.5,16.5 L1.5,17.625 C1.5,17.832 1.668,18 1.875,18 C2.082,18 2.25,17.832 2.25,17.625 L2.25,16.5 L17.625,16.5 C17.832,16.5 18,16.332 18,16.125 C18,15.918 17.832,15.75 17.625,15.75 L2.25,15.75 L2.25,0.375 C2.25,0.168 2.082,0 1.875,0 C1.668,0 1.5,0.168 1.5,0.375 L1.5,15.75 L0.375,15.75 C0.168,15.75 0,15.918 0,16.125 C0,16.332 0.168,16.5 0.375,16.5 L1.5,16.5 Z M5.625,15 C5.418,15 5.25,14.832 5.25,14.625 L5.25,13.875 C5.25,13.668 5.418,13.5 5.625,13.5 C5.832,13.5 6,13.668 6,13.875 L6,14.625 C6,14.832 5.832,15 5.625,15 Z M10.125,15 C9.918,15 9.75,14.832 9.75,14.625 L9.75,9.375 C9.75,9.168 9.918,9 10.125,9 C10.332,9 10.5,9.168 10.5,9.375 L10.5,14.625 C10.5,14.832 10.332,15 10.125,15 Z M15.375,15 C15.168,15 15,14.832 15,14.625 L15,6.375 C15,6.168 15.168,6 15.375,6 C15.582,6 15.75,6.168 15.75,6.375 L15.75,14.625 C15.75,14.832 15.582,15 15.375,15 Z"></path>
                    </g>
                </g>
            </g>
            <g id="nav-bar-icon-dashboard-white" sketch:type="MSLayerGroup">
                <mask id="mask-20" sketch:name="Mask" fill="white">
                    <use xlink:href="#path-19"></use>
                </mask>
                <use id="Mask" sketch:type="MSShapeGroup" xlink:href="#path-19"></use>
                <g id="Group" mask="url(#mask-20)" fill="#FFFFFF" sketch:type="MSShapeGroup">
                    <g transform="translate(0.375000, 0.291667)" id="Shape">
                        <path d="M16.9022817,10.1025132 L15.7366071,10.1025132 C15.5034722,10.1025132 15.3480489,9.94708995 15.3480489,9.71395503 C15.3480489,9.48082011 15.5034722,9.32539683 15.7366071,9.32539683 L16.9022817,9.32539683 C17.1354167,9.32539683 17.2908399,9.48082011 17.2908399,9.71395503 C17.2908399,9.94708995 17.1354167,10.1025132 16.9022817,10.1025132 L16.9022817,10.1025132 Z"></path>
                        <path d="M3.53587963,10.1025132 L2.37020503,10.1025132 C2.13707011,10.1025132 1.98164683,9.94708995 1.98164683,9.71395503 C1.98164683,9.48082011 2.13707011,9.32539683 2.37020503,9.32539683 L3.53587963,9.32539683 C3.76901455,9.32539683 3.92443783,9.48082011 3.92443783,9.71395503 C3.92443783,9.94708995 3.76901455,10.1025132 3.53587963,10.1025132 L3.53587963,10.1025132 Z"></path>
                        <path d="M13.9492394,5.7895172 C13.832672,5.7895172 13.7549603,5.75066138 13.6772487,5.67294974 C13.5218254,5.51752646 13.5218254,5.28439153 13.6772487,5.12896825 L14.4932209,4.31299603 C14.6486442,4.15757275 14.8817791,4.15757275 15.0372024,4.31299603 C15.1926257,4.46841931 15.1926257,4.70155423 15.0372024,4.85697751 L14.2212302,5.67294974 C14.1435185,5.75066138 14.0269511,5.7895172 13.9492394,5.7895172 L13.9492394,5.7895172 Z"></path>
                        <path d="M5.32324735,5.7895172 C5.20667989,5.7895172 5.12896825,5.75066138 5.05125661,5.67294974 L4.23528439,4.85697751 C4.07986111,4.70155423 4.07986111,4.46841931 4.23528439,4.31299603 C4.39070767,4.15757275 4.62384259,4.15757275 4.77926587,4.31299603 L5.5952381,5.12896825 C5.75066138,5.28439153 5.75066138,5.51752646 5.5952381,5.67294974 C5.51752646,5.75066138 5.43981481,5.7895172 5.32324735,5.7895172 L5.32324735,5.7895172 Z"></path>
                        <path d="M9.55853175,11.1516204 C9.51967593,11.1516204 9.48082011,11.1516204 9.44196429,11.1127646 C9.24768519,11.0350529 9.13111772,10.801918 9.20882937,10.6076389 L11.1904762,4.85697751 C11.2681878,4.66269841 11.5013228,4.54613095 11.6956019,4.62384259 C11.889881,4.70155423 12.0064484,4.93468915 11.9287368,5.12896825 L9.90823413,10.8796296 C9.86937831,11.0350529 9.71395503,11.1516204 9.55853175,11.1516204 L9.55853175,11.1516204 Z"></path>
                        <path d="M9.63624339,18.8450728 C4.58498677,18.8450728 0.505125661,14.7652116 0.505125661,9.71395503 C0.505125661,4.66269841 4.58498677,0.582837302 9.63624339,0.582837302 C14.6875,0.582837302 18.7673611,4.66269841 18.7673611,9.71395503 C18.7673611,14.7652116 14.6875,18.8450728 9.63624339,18.8450728 L9.63624339,18.8450728 Z M9.63624339,1.3599537 C5.01240079,1.3599537 1.28224206,5.09011243 1.28224206,9.71395503 C1.28224206,14.3377976 5.01240079,18.0679563 9.63624339,18.0679563 C14.260086,18.0679563 17.9902447,14.3377976 17.9902447,9.71395503 C17.9902447,5.09011243 14.260086,1.3599537 9.63624339,1.3599537 L9.63624339,1.3599537 Z"></path>
                        <path d="M17.5628307,13.172123 L1.51537698,13.172123 C1.28224206,13.172123 1.12681878,13.0166997 1.12681878,12.7835648 C1.12681878,12.5504299 1.28224206,12.3950066 1.51537698,12.3950066 L17.5628307,12.3950066 C17.7959656,12.3950066 17.9513889,12.5504299 17.9513889,12.7835648 C17.9513889,13.0166997 17.7959656,13.172123 17.5628307,13.172123 L17.5628307,13.172123 Z"></path>
                        <path d="M11.5790344,13.172123 L7.49917328,13.172123 C7.26603836,13.172123 7.11061508,13.0166997 7.11061508,12.7835648 C7.11061508,11.4624669 8.19857804,10.374504 9.51967593,10.374504 C10.8407738,10.374504 11.9287368,11.4624669 11.9287368,12.7835648 C11.9675926,13.0166997 11.7733135,13.172123 11.5790344,13.172123 L11.5790344,13.172123 Z M7.96544312,12.3950066 L11.1516204,12.3950066 C10.9573413,11.6956019 10.3356481,11.1516204 9.55853175,11.1516204 C8.78141534,11.1516204 8.1208664,11.6956019 7.96544312,12.3950066 L7.96544312,12.3950066 Z"></path>
                        <path d="M9.63624339,4.00214947 C9.40310847,4.00214947 9.24768519,3.84672619 9.24768519,3.61359127 L9.24768519,2.44791667 C9.24768519,2.21478175 9.40310847,2.05935847 9.63624339,2.05935847 C9.86937831,2.05935847 10.0248016,2.21478175 10.0248016,2.44791667 L10.0248016,3.61359127 C10.0248016,3.84672619 9.86937831,4.00214947 9.63624339,4.00214947 L9.63624339,4.00214947 Z"></path>
                    </g>
                </g>
            </g>
            <g id="nav-bar-icon-dashboard" sketch:type="MSLayerGroup" transform="translate(0.000000, 20.000000)">
                <mask id="mask-22" sketch:name="Mask" fill="white">
                    <use xlink:href="#path-21"></use>
                </mask>
                <use id="Mask" sketch:type="MSShapeGroup" xlink:href="#path-21"></use>
                <g id="Group" mask="url(#mask-22)" fill="#000000" sketch:type="MSShapeGroup">
                    <g transform="translate(0.375000, 0.291667)" id="Shape">
                        <path d="M16.9022817,10.1025132 L15.7366071,10.1025132 C15.5034722,10.1025132 15.3480489,9.94708995 15.3480489,9.71395503 C15.3480489,9.48082011 15.5034722,9.32539683 15.7366071,9.32539683 L16.9022817,9.32539683 C17.1354167,9.32539683 17.2908399,9.48082011 17.2908399,9.71395503 C17.2908399,9.94708995 17.1354167,10.1025132 16.9022817,10.1025132 L16.9022817,10.1025132 Z"></path>
                        <path d="M3.53587963,10.1025132 L2.37020503,10.1025132 C2.13707011,10.1025132 1.98164683,9.94708995 1.98164683,9.71395503 C1.98164683,9.48082011 2.13707011,9.32539683 2.37020503,9.32539683 L3.53587963,9.32539683 C3.76901455,9.32539683 3.92443783,9.48082011 3.92443783,9.71395503 C3.92443783,9.94708995 3.76901455,10.1025132 3.53587963,10.1025132 L3.53587963,10.1025132 Z"></path>
                        <path d="M13.9492394,5.7895172 C13.832672,5.7895172 13.7549603,5.75066138 13.6772487,5.67294974 C13.5218254,5.51752646 13.5218254,5.28439153 13.6772487,5.12896825 L14.4932209,4.31299603 C14.6486442,4.15757275 14.8817791,4.15757275 15.0372024,4.31299603 C15.1926257,4.46841931 15.1926257,4.70155423 15.0372024,4.85697751 L14.2212302,5.67294974 C14.1435185,5.75066138 14.0269511,5.7895172 13.9492394,5.7895172 L13.9492394,5.7895172 Z"></path>
                        <path d="M5.32324735,5.7895172 C5.20667989,5.7895172 5.12896825,5.75066138 5.05125661,5.67294974 L4.23528439,4.85697751 C4.07986111,4.70155423 4.07986111,4.46841931 4.23528439,4.31299603 C4.39070767,4.15757275 4.62384259,4.15757275 4.77926587,4.31299603 L5.5952381,5.12896825 C5.75066138,5.28439153 5.75066138,5.51752646 5.5952381,5.67294974 C5.51752646,5.75066138 5.43981481,5.7895172 5.32324735,5.7895172 L5.32324735,5.7895172 Z"></path>
                        <path d="M9.55853175,11.1516204 C9.51967593,11.1516204 9.48082011,11.1516204 9.44196429,11.1127646 C9.24768519,11.0350529 9.13111772,10.801918 9.20882937,10.6076389 L11.1904762,4.85697751 C11.2681878,4.66269841 11.5013228,4.54613095 11.6956019,4.62384259 C11.889881,4.70155423 12.0064484,4.93468915 11.9287368,5.12896825 L9.90823413,10.8796296 C9.86937831,11.0350529 9.71395503,11.1516204 9.55853175,11.1516204 L9.55853175,11.1516204 Z"></path>
                        <path d="M9.63624339,18.8450728 C4.58498677,18.8450728 0.505125661,14.7652116 0.505125661,9.71395503 C0.505125661,4.66269841 4.58498677,0.582837302 9.63624339,0.582837302 C14.6875,0.582837302 18.7673611,4.66269841 18.7673611,9.71395503 C18.7673611,14.7652116 14.6875,18.8450728 9.63624339,18.8450728 L9.63624339,18.8450728 Z M9.63624339,1.3599537 C5.01240079,1.3599537 1.28224206,5.09011243 1.28224206,9.71395503 C1.28224206,14.3377976 5.01240079,18.0679563 9.63624339,18.0679563 C14.260086,18.0679563 17.9902447,14.3377976 17.9902447,9.71395503 C17.9902447,5.09011243 14.260086,1.3599537 9.63624339,1.3599537 L9.63624339,1.3599537 Z"></path>
                        <path d="M17.5628307,13.172123 L1.51537698,13.172123 C1.28224206,13.172123 1.12681878,13.0166997 1.12681878,12.7835648 C1.12681878,12.5504299 1.28224206,12.3950066 1.51537698,12.3950066 L17.5628307,12.3950066 C17.7959656,12.3950066 17.9513889,12.5504299 17.9513889,12.7835648 C17.9513889,13.0166997 17.7959656,13.172123 17.5628307,13.172123 L17.5628307,13.172123 Z"></path>
                        <path d="M11.5790344,13.172123 L7.49917328,13.172123 C7.26603836,13.172123 7.11061508,13.0166997 7.11061508,12.7835648 C7.11061508,11.4624669 8.19857804,10.374504 9.51967593,10.374504 C10.8407738,10.374504 11.9287368,11.4624669 11.9287368,12.7835648 C11.9675926,13.0166997 11.7733135,13.172123 11.5790344,13.172123 L11.5790344,13.172123 Z M7.96544312,12.3950066 L11.1516204,12.3950066 C10.9573413,11.6956019 10.3356481,11.1516204 9.55853175,11.1516204 C8.78141534,11.1516204 8.1208664,11.6956019 7.96544312,12.3950066 L7.96544312,12.3950066 Z"></path>
                        <path d="M9.63624339,4.00214947 C9.40310847,4.00214947 9.24768519,3.84672619 9.24768519,3.61359127 L9.24768519,2.44791667 C9.24768519,2.21478175 9.40310847,2.05935847 9.63624339,2.05935847 C9.86937831,2.05935847 10.0248016,2.21478175 10.0248016,2.44791667 L10.0248016,3.61359127 C10.0248016,3.84672619 9.86937831,4.00214947 9.63624339,4.00214947 L9.63624339,4.00214947 Z"></path>
                    </g>
                </g>
            </g>
            <g id="nav-bar-icon-chat-white" sketch:type="MSLayerGroup" transform="translate(20.000000, 0.000000)">
                <mask id="mask-24" sketch:name="Mask" fill="white">
                    <use xlink:href="#path-23"></use>
                </mask>
                <use id="Mask" sketch:type="MSShapeGroup" xlink:href="#path-23"></use>
                <path d="M3.90557895,1 C2.90042105,1 1,1.60021311 1,3.86588525 L1,13.4608852 C1,15.7268689 2.90042105,16.3267705 3.90557895,16.3267705 L9.734375,16.3267708 L10.078125,15.3929672 L3.90557895,15.3923443 C3.706,15.3923443 1.948,15.3235082 1.948,13.4608852 L1.948,3.86619672 C1.948,2.00606557 3.706,1.9347377 3.90557895,1.9347377 L16.0634737,1.9347377 C17.9518947,1.9347377 18.0216842,3.67214754 18.0248421,3.86619672 L18.0248421,13.4608852 C18.0248421,15.3235082 16.2633684,15.3929672 16.0634737,15.3929672 L13.6334737,15.3929672 C13.3726316,15.3929672 13.1607368,15.6010328 13.1607368,15.8614262 L13.1607368,18.3332951 L10.3195789,15.5300164 C10.2339343,15.4459721 10.078125,15.3929672 10.078125,15.3929672 L9.734375,16.3267708 L13.2974737,19.7866393 C13.39,19.8785246 13.5090526,19.924 13.6334737,19.924 C13.6937895,19.924 13.7547368,19.9124754 13.8125263,19.8894262 C13.9893684,19.8152951 14.1055789,19.6467869 14.1055789,19.4580328 L14.1055789,16.3267705 L16.0634737,16.3267705 C17.0683158,16.3267705 18.9690526,15.7268689 18.9690526,13.4608852 L18.9690526,3.86619672 C18.9693684,2.87477049 18.3608421,1 16.0634737,1 L3.90557895,1 Z" id="Shape" fill="#FFFFFF" sketch:type="MSShapeGroup" mask="url(#mask-24)"></path>
                <path d="M5.12231579,6.73177049 L14.8498947,6.73177049 C15.1101053,6.73177049 15.3223158,6.52308197 15.3223158,6.26580328 C15.3223158,6.00540984 15.1101053,5.79734426 14.8498947,5.79734426 L5.12231579,5.79734426 C4.86210526,5.79734426 4.64736842,6.00603279 4.64736842,6.26580328 C4.64736842,6.52339344 4.86147368,6.73177049 5.12231579,6.73177049 L5.12231579,6.73177049 Z" id="Shape" fill="#FFFFFF" sketch:type="MSShapeGroup" mask="url(#mask-24)"></path>
                <path d="M5.12231579,9.1295082 L14.8498947,9.1295082 C15.1101053,9.1295082 15.3223158,8.92081967 15.3223158,8.66354098 C15.3223158,8.4062623 15.1101053,8.19819672 14.8498947,8.19819672 L5.12231579,8.19819672 C4.86210526,8.19819672 4.64736842,8.4062623 4.64736842,8.66354098 C4.64736842,8.92081967 4.86147368,9.1295082 5.12231579,9.1295082 L5.12231579,9.1295082 Z" id="Shape" fill="#FFFFFF" sketch:type="MSShapeGroup" mask="url(#mask-24)"></path>
                <path d="M5.12231579,11.5294262 L14.8498947,11.5294262 C15.1101053,11.5294262 15.3223158,11.3207377 15.3223158,11.063459 C15.3223158,10.8068033 15.1101053,10.595 14.8498947,10.595 L5.12231579,10.595 C4.86210526,10.595 4.64736842,10.8061803 4.64736842,11.063459 C4.64736842,11.3213607 4.86147368,11.5294262 5.12231579,11.5294262 L5.12231579,11.5294262 Z" id="Shape" fill="#FFFFFF" sketch:type="MSShapeGroup" mask="url(#mask-24)"></path>
            </g>
            <g id="nav-bar-icon-cards-white" sketch:type="MSLayerGroup" transform="translate(40.000000, 0.000000)">
                <mask id="mask-26" sketch:name="Mask" fill="white">
                    <use xlink:href="#path-25"></use>
                </mask>
                <use id="Mask" sketch:type="MSShapeGroup" xlink:href="#path-25"></use>
                <path d="M9.88052747,12.1354 C9.77925275,12.1354 9.67817582,12.1094 9.58718681,12.057 L1.30105495,7.2972 C1.11650549,7.1914 1.00237363,6.9946 1.0001978,6.7806 C0.99821978,6.5668 1.10879121,6.3676 1.29096703,6.2582 L9.61843956,1.2506 C9.80457143,1.1382 10.0367912,1.1382 10.2241099,1.2492 L18.5098462,6.1844 C18.6918242,6.293 18.8035824,6.4918 18.8023956,6.7058 C18.801011,6.9196 18.6876703,7.1168 18.5037143,7.2234 L10.1766374,12.0554 C10.0850549,12.1088 9.98279121,12.1354 9.88052747,12.1354 L9.88052747,12.1354 Z M2.77725275,6.7626 L9.87934066,10.8422 L17.0253407,6.6956 L9.92345055,2.4656 L2.77725275,6.7626 L2.77725275,6.7626 Z" id="Shape" fill="#FFFFFF" sketch:type="MSShapeGroup" mask="url(#mask-26)"></path>
                <path d="M9.88052747,15.4862 C9.77925275,15.4862 9.67817582,15.4602 9.58718681,15.4078 L1.30105495,10.6482 C1.01542857,10.4844 0.915538462,10.1174 1.07753846,9.8286 C1.23953846,9.5398 1.60369231,9.4384 1.88793407,9.603 L9.87914286,14.193 L17.9116923,9.532 C18.1961319,9.3668 18.5598901,9.466 18.7230769,9.754 C18.8864615,10.0418 18.787956,10.4092 18.5033187,10.5744 L10.1764396,15.4064 C10.0850549,15.4598 9.98279121,15.4862 9.88052747,15.4862 L9.88052747,15.4862 Z" id="Shape" fill="#FFFFFF" sketch:type="MSShapeGroup" mask="url(#mask-26)"></path>
                <path d="M9.88052747,18.8338 C9.77925275,18.8338 9.67817582,18.8078 9.58718681,18.7554 L1.30105495,13.9958 C1.01542857,13.832 0.915538462,13.465 1.07753846,13.1762 C1.23953846,12.8878 1.60369231,12.7866 1.88793407,12.9506 L9.87914286,17.5406 L17.9116923,12.8796 C18.1961319,12.7138 18.5598901,12.8138 18.7230769,13.1016 C18.8864615,13.3894 18.787956,13.7568 18.5033187,13.922 L10.1764396,18.754 C10.0850549,18.8074 9.98279121,18.8338 9.88052747,18.8338 L9.88052747,18.8338 Z" id="Shape" fill="#FFFFFF" sketch:type="MSShapeGroup" mask="url(#mask-26)"></path>
            </g>
            <g id="msgai-alert-icon" sketch:type="MSLayerGroup" transform="translate(120.000000, 20.000000)">
                <mask id="mask-28" sketch:name="Mask" fill="white">
                    <use xlink:href="#path-27"></use>
                </mask>
                <use id="Mask" sketch:type="MSShapeGroup" xlink:href="#path-27"></use>
                <path d="M9.00772708,2.61361801 L1.31633578,16.4668523 C0.676436509,17.633251 0.948236201,18.7485747 2.67780924,18.7485747 L17.3212427,18.7485747 C19.0548657,18.7485747 19.3228404,17.633251 18.6827161,16.4668523 L10.83225,2.65051797 C10.6731752,2.33934332 10.4421005,1.99554371 9.95160101,2.00004371 C9.4300516,2.0094937 9.17107689,2.30244337 9.00772708,2.61361801 L9.00772708,2.61361801 Z" id="Path" stroke="#333333" sketch:type="MSShapeGroup" mask="url(#mask-28)"></path>
                <rect id="Rectangle-438" fill="#4C4C4C" sketch:type="MSShapeGroup" mask="url(#mask-28)" x="9" y="7" width="2" height="7" rx="1"></rect>
                <rect id="Rectangle-439" fill="#333333" sketch:type="MSShapeGroup" mask="url(#mask-28)" x="9" y="15" width="2" height="2" rx="1"></rect>
            </g>
            <g id="msgai-alert-icon-red" sketch:type="MSLayerGroup" transform="translate(120.000000, 40.000000)">
                <mask id="mask-30" sketch:name="Mask" fill="white">
                    <use xlink:href="#path-29"></use>
                </mask>
                <use id="Mask" sketch:type="MSShapeGroup" xlink:href="#path-29"></use>
                <path d="M9.00772708,2.61361801 L1.31633578,16.4668523 C0.676436509,17.633251 0.948236201,18.7485747 2.67780924,18.7485747 L17.3212427,18.7485747 C19.0548657,18.7485747 19.3228404,17.633251 18.6827161,16.4668523 L10.83225,2.65051797 C10.6731752,2.33934332 10.4421005,1.99554371 9.95160101,2.00004371 C9.4300516,2.0094937 9.17107689,2.30244337 9.00772708,2.61361801 L9.00772708,2.61361801 Z" id="Path" stroke="#BD0218" sketch:type="MSShapeGroup" mask="url(#mask-30)"></path>
                <rect id="Rectangle-438" fill="#BD0117" sketch:type="MSShapeGroup" mask="url(#mask-30)" x="9" y="7" width="2" height="7" rx="1"></rect>
                <rect id="Rectangle-439" fill="#BD0117" sketch:type="MSShapeGroup" mask="url(#mask-30)" x="9" y="15" width="2" height="2" rx="1"></rect>
            </g>
            <g id="msgai-alert-icon-white" sketch:type="MSLayerGroup" transform="translate(120.000000, 0.000000)">
                <mask id="mask-32" sketch:name="Mask" fill="white">
                    <use xlink:href="#path-31"></use>
                </mask>
                <use id="Mask" sketch:type="MSShapeGroup" xlink:href="#path-31"></use>
                <path d="M9.00772708,2.61361801 L1.31633578,16.4668523 C0.676436509,17.633251 0.948236201,18.7485747 2.67780924,18.7485747 L17.3212427,18.7485747 C19.0548657,18.7485747 19.3228404,17.633251 18.6827161,16.4668523 L10.83225,2.65051797 C10.6731752,2.33934332 10.4421005,1.99554371 9.95160101,2.00004371 C9.4300516,2.0094937 9.17107689,2.30244337 9.00772708,2.61361801 L9.00772708,2.61361801 Z" id="Path" stroke="#FFFFFF" sketch:type="MSShapeGroup" mask="url(#mask-32)"></path>
                <rect id="Rectangle-438" fill="#FFFFFF" sketch:type="MSShapeGroup" mask="url(#mask-32)" x="9" y="7" width="2" height="7" rx="1"></rect>
                <rect id="Rectangle-439" fill="#FFFFFF" sketch:type="MSShapeGroup" mask="url(#mask-32)" x="9" y="15" width="2" height="2" rx="1"></rect>
            </g>
            <g id="nav-bar-icon-settings" sketch:type="MSLayerGroup" transform="translate(100.000000, 20.000000)">
                <mask id="mask-34" sketch:name="Mask" fill="white">
                    <use xlink:href="#path-33"></use>
                </mask>
                <use id="Mask" sketch:type="MSShapeGroup" xlink:href="#path-33"></use>
                <path d="M10.4195,10.0855467 L10.4195,1.49577333 C10.4195,1.22192 10.2005,1 9.93025,1 C9.66,1 9.441,1.22192 9.441,1.49577333 L9.441,10.0855467 C8.243,10.3181067 7.33425,11.3866667 7.33425,12.6677733 C7.33425,13.9486267 8.243,15.0171867 9.441,15.25 L9.441,19.0854667 C9.441,19.35932 9.66,19.58124 9.93025,19.58124 C10.2005,19.58124 10.4195,19.35932 10.4195,19.0854667 L10.4195,15.25 C11.6175,15.01744 12.52625,13.94888 12.52625,12.6677733 C12.52625,11.3866667 11.6175,10.3181067 10.4195,10.0855467 L10.4195,10.0855467 Z M9.93025,14.3065867 C9.03825,14.3065867 8.31275,13.5714133 8.31275,12.66752 C8.31275,11.7636267 9.03825,11.0284533 9.93025,11.0284533 C10.82225,11.0284533 11.54775,11.7636267 11.54775,12.66752 C11.54775,13.5714133 10.82225,14.3065867 9.93025,14.3065867 L9.93025,14.3065867 Z M4.08525,5.68970667 L4.08525,1.49577333 C4.08525,1.22192 3.86625,1 3.596,1 C3.32575,1 3.10675,1.22192 3.10675,1.49577333 L3.10675,5.68970667 C1.90875,5.92226667 1,6.99082667 1,8.27193333 C1,9.55278667 1.9085,10.6213467 3.10675,10.85416 L3.10675,18.8939467 C3.10675,19.1678 3.32575,19.38972 3.596,19.38972 C3.86625,19.38972 4.08525,19.1678 4.08525,18.8939467 L4.08525,10.8539067 C5.28325,10.6213467 6.192,9.55278667 6.192,8.27168 C6.192,6.99082667 5.2835,5.92226667 4.08525,5.68970667 L4.08525,5.68970667 Z M3.59625,9.91074667 C2.70425,9.91074667 1.97875,9.17557333 1.97875,8.27168 C1.97875,7.37361333 2.6955,6.64274667 3.5795,6.63337333 C3.58525,6.63362667 3.5905,6.63514667 3.59625,6.63514667 C3.602,6.63514667 3.60725,6.63362667 3.613,6.63337333 C4.49725,6.64249333 5.21375,7.37361333 5.21375,8.27168 C5.21375,9.17557333 4.488,9.91074667 3.59625,9.91074667 L3.59625,9.91074667 Z M18.82025,8.27168 C18.82025,6.99082667 17.9115,5.92226667 16.7135,5.68945333 L16.7135,1.73796 C16.7135,1.46410667 16.4945,1.24218667 16.22425,1.24218667 C15.954,1.24218667 15.735,1.46410667 15.735,1.73796 L15.735,5.68945333 C14.537,5.92201333 13.62825,6.99057333 13.62825,8.27168 C13.62825,9.55253333 14.537,10.6210933 15.735,10.8539067 L15.735,19.3276533 C15.735,19.6015067 15.954,19.8234267 16.22425,19.8234267 C16.4945,19.8234267 16.7135,19.6015067 16.7135,19.3276533 L16.7135,10.8539067 C17.9115,10.6210933 18.82025,9.55253333 18.82025,8.27168 L18.82025,8.27168 Z M16.22425,9.91074667 C15.33225,9.91074667 14.60675,9.17557333 14.60675,8.27168 C14.60675,7.36778667 15.33225,6.63261333 16.22425,6.63261333 C17.11625,6.63261333 17.84175,7.36778667 17.84175,8.27168 C17.842,9.17557333 17.11625,9.91074667 16.22425,9.91074667 L16.22425,9.91074667 Z" id="Shape" fill="#000000" sketch:type="MSShapeGroup" mask="url(#mask-34)"></path>
            </g>
            <g id="facebook-with-circle-white" sketch:type="MSLayerGroup" transform="translate(2.000000, 42.000000)" fill="#FFFFFF">
                <g id="Facebook_w_x2F__circle" sketch:type="MSShapeGroup">
                    <path d="M8,0.32 C3.7584,0.32 0.32,3.7584 0.32,8 C0.32,12.2416 3.7584,15.68 8,15.68 C12.2416,15.68 15.68,12.2416 15.68,8 C15.68,3.7584 12.2416,0.32 8,0.32 L8,0.32 Z M10.4974803,4.83061342 L8.95552993,4.83061342 C8.772804,4.83061342 8.56977519,5.07104227 8.56977519,5.3905455 L8.56977519,6.50399824 L10.4985489,6.50399824 L10.2068285,8.09189725 L8.56977519,8.09189725 L8.56977519,12.8588 L6.74999591,12.8588 L6.74999591,8.09189725 L5.09905111,8.09189725 L5.09905111,6.50399824 L6.74999591,6.50399824 L6.74999591,5.57006571 C6.74999591,4.23007557 7.67965415,3.1412 8.95552993,3.1412 L10.4974803,3.1412 L10.4974803,4.83061342 L10.4974803,4.83061342 Z" id="Shape"></path>
                </g>
            </g>
            <g id="twitter-with-circle-white" sketch:type="MSLayerGroup" transform="translate(22.000000, 42.000000)" fill="#FFFFFF">
                <g id="Twitter_w_x2F__circle" sketch:type="MSShapeGroup">
                    <path d="M8,0.32 C3.7584,0.32 0.32,3.7584 0.32,8 C0.32,12.2416 3.7584,15.68 8,15.68 C12.2416,15.68 15.68,12.2416 15.68,8 C15.68,3.7584 12.2416,0.32 8,0.32 L8,0.32 Z M11.5145669,6.41088058 C11.5181932,6.48522024 11.5190998,6.5595599 11.5190998,6.6320864 C11.5190998,8.89853947 9.79568891,11.5104 6.64259939,11.5104 C5.67437063,11.5104 4.77322889,11.2275467 4.01532698,10.739806 C4.14859442,10.7561244 4.28548819,10.7624705 4.42419511,10.7624705 C5.22742608,10.7624705 5.96628979,10.4895895 6.55284784,10.0290463 C5.80310517,10.014541 5.17031147,9.51954762 4.95182539,8.83961169 C5.05608223,8.8586499 5.16305882,8.86952887 5.27366173,8.86952887 C5.4295937,8.86952887 5.58189935,8.84867751 5.72513918,8.80969451 C4.94094642,8.65194938 4.34985545,7.95932132 4.34985545,7.12889291 L4.34985545,7.10804154 C4.58103367,7.2358695 4.84575539,7.31383548 5.12679557,7.32290129 C4.6662523,7.01466368 4.36436075,6.49065973 4.36436075,5.89503586 C4.36436075,5.58135875 4.44867281,5.28581327 4.59644555,5.03287711 C5.44228584,6.07000603 6.70424691,6.75175512 8.1293926,6.8251882 C8.09947542,6.69917341 8.08497012,6.56862571 8.08497012,6.43354511 C8.08497012,5.48798088 8.85193785,4.7192 9.79931523,4.7192 C10.2915888,4.7192 10.7376268,4.92771368 11.0503973,5.26133558 C11.4411338,5.18336959 11.8073927,5.04194292 12.1382948,4.84521479 C12.0104669,5.24501711 11.7393991,5.58135875 11.3849258,5.79440534 C11.7321464,5.75179602 12.062142,5.66023132 12.369473,5.52333755 C12.140108,5.86693184 11.8490954,6.16972997 11.5145669,6.41088058 L11.5145669,6.41088058 Z" id="Shape"></path>
                </g>
            </g>
            <circle id="status-indicator-unavailable" stroke="#FFFFFF" fill="#D0011B" filter="url(#filter-35)" sketch:type="MSShapeGroup" cx="70" cy="50" r="5"></circle>
            <circle id="status-indicator-available" stroke="#FFFFFF" fill="#7ED321" filter="url(#filter-36)" sketch:type="MSShapeGroup" cx="50" cy="50" r="5"></circle>
        </g>
    </g>
</svg>